
<svg width="195" height="54" viewBox="0 0 195 54" fill="none" xmlns="http://www.w3.org/2000/svg">
<path d="M11.2572 2.36654C10.7353 2.39044 10.2846 2.46215 9.90506 2.58167C9.52552 2.7012 9.22901 2.9761 9.01552 3.40638C8.82575 3.81275 8.73086 4.50598 8.73086 5.48606V19.2191C8.73086 19.8645 8.719 20.4861 8.69528 21.0837C8.67156 21.6813 8.63598 22.1355 8.58854 22.4462C8.96807 22.3984 9.4425 22.3745 10.0118 22.3745C10.6048 22.3506 11.02 22.3386 11.2572 22.3386V25.0996H1.04521V22.7331C1.5908 22.7092 2.0415 22.6375 2.39732 22.5179C2.77686 22.3984 3.06151 22.1235 3.25128 21.6932C3.46477 21.2629 3.57151 20.5697 3.57151 19.6135V5.88048C3.57151 5.23506 3.58337 4.61355 3.6071 4.01594C3.65454 3.41833 3.69012 2.96414 3.71384 2.65339C3.3343 2.67729 2.85988 2.7012 2.29057 2.7251C1.72127 2.7251 1.30615 2.73705 1.04521 2.76096V0H11.2572V2.36654Z" fill="#FF784D"/>
<path d="M14.1029 25.0996V22.7689C14.7671 22.7689 15.2415 22.6375 15.5261 22.3745C15.8108 22.1116 15.9887 21.741 16.0599 21.2629C16.1547 20.761 16.2022 20.1992 16.2022 19.5777V13.5538C16.2022 13.1235 16.214 12.6454 16.2378 12.1195C16.2615 11.5697 16.2971 11.0319 16.3445 10.506C15.965 10.5299 15.5143 10.5538 14.9924 10.5777C14.4943 10.5777 14.1147 10.5896 13.8538 10.6135V7.88845C14.945 7.88845 15.8701 7.82869 16.6292 7.70916C17.3882 7.58964 17.9813 7.44622 18.4083 7.27889C18.859 7.11156 19.1673 6.95618 19.3334 6.81275H21.0769C21.1243 7.12351 21.148 7.3506 21.148 7.49402C21.148 7.63745 21.148 7.78088 21.148 7.9243C21.1718 8.04383 21.2192 8.27092 21.2904 8.60558C21.7648 8.22311 22.3104 7.88845 22.9271 7.60159C23.5439 7.29084 24.1606 7.05179 24.7774 6.88446C25.3941 6.69323 25.9397 6.59761 26.4141 6.59761C28.5965 6.59761 30.1384 7.23108 31.0398 8.49801C31.9649 9.74104 32.4274 11.749 32.4274 14.5219V19.3267C32.4274 19.6614 32.4156 20.1394 32.3919 20.761C32.3681 21.3586 32.3326 21.9323 32.2851 22.4821C32.6884 22.4343 33.1154 22.4104 33.5661 22.4104C34.0168 22.3865 34.3607 22.3745 34.5979 22.3745V25.0996H25.2755V22.7689C25.9397 22.7689 26.4141 22.6375 26.6988 22.3745C27.0072 22.1116 27.1969 21.741 27.2681 21.2629C27.363 20.761 27.4104 20.1992 27.4104 19.5777L27.3748 14.4861C27.3748 12.9323 27.1495 11.7849 26.6988 11.0438C26.2718 10.2789 25.5365 9.89641 24.4927 9.89641C23.8997 9.89641 23.3067 10.0279 22.7136 10.2908C22.1443 10.5538 21.658 10.8645 21.2548 11.2231C21.2548 11.5578 21.2548 11.9044 21.2548 12.2629C21.2548 12.5976 21.2548 12.9323 21.2548 13.2669V19.3267C21.2548 19.6614 21.2429 20.1394 21.2192 20.761C21.1955 21.3586 21.1599 21.9323 21.1125 22.4821C21.492 22.4343 21.9071 22.4104 22.3578 22.4104C22.8322 22.3865 23.1881 22.3745 23.4253 22.3745V25.0996H14.1029Z" fill="#FF784D"/>
<path d="M44.9075 25.6733C43.8874 25.6733 42.8912 25.5418 41.9186 25.2789C40.946 25.0159 40.1869 24.6813 39.6414 24.2749L39.7125 25.3506H37.0083L36.866 19.1833H39.1788C39.25 19.9004 39.5346 20.5578 40.0328 21.1554C40.5309 21.753 41.1832 22.2311 41.9898 22.5896C42.7963 22.9243 43.6977 23.0916 44.694 23.0916C45.0972 23.0916 45.4768 23.0319 45.8326 22.9124C46.2121 22.7928 46.5205 22.6016 46.7577 22.3386C47.0186 22.0518 47.1491 21.7052 47.1491 21.2988C47.1491 20.8446 46.9831 20.4741 46.651 20.1873C46.3426 19.9004 45.88 19.6255 45.2633 19.3626C44.6702 19.0996 43.923 18.8008 43.0216 18.4661C42.2863 18.1793 41.5391 17.8805 40.78 17.5697C40.0446 17.259 39.3567 16.8884 38.7162 16.4582C38.0995 16.004 37.6013 15.4542 37.2218 14.8088C36.8423 14.1394 36.6525 13.3267 36.6525 12.3705C36.6525 11.6773 36.783 10.996 37.0439 10.3267C37.3048 9.63347 37.7081 9.01195 38.2537 8.46215C38.7993 7.88845 39.4872 7.43426 40.3174 7.0996C41.1714 6.76494 42.1795 6.59761 43.3419 6.59761C43.9823 6.59761 44.7058 6.70518 45.5123 6.92032C46.3426 7.11156 47.0424 7.41036 47.6117 7.81673V6.77689H50.3159V13.1235H48.0031C47.8607 12.2869 47.5642 11.5697 47.1135 10.9721C46.6865 10.3745 46.1291 9.92032 45.4412 9.60956C44.7533 9.2749 43.9823 9.10757 43.1284 9.10757C42.5353 9.10757 41.9897 9.251 41.4916 9.53785C41.0172 9.8247 40.78 10.3147 40.78 11.008C40.78 11.5578 40.9697 12 41.3493 12.3347C41.7288 12.6454 42.2507 12.9084 42.9149 13.1235C43.5791 13.3386 44.3144 13.5896 45.1209 13.8765C46.3307 14.2829 47.3982 14.761 48.3233 15.3108C49.2721 15.8606 50.0194 16.5299 50.5649 17.3187C51.1105 18.0837 51.3833 19.0279 51.3833 20.1514C51.3833 21.3944 51.075 22.4223 50.4582 23.2351C49.8415 24.0478 49.0349 24.6574 48.0386 25.0637C47.0661 25.4701 46.0224 25.6733 44.9075 25.6733Z" fill="#FF784D"/>
<path d="M62.4262 25.6733C60.6945 25.6733 59.1645 25.2908 57.8361 24.5259C56.5077 23.7371 55.4759 22.6375 54.7405 21.2271C54.0052 19.7928 53.6375 18.1076 53.6375 16.1713C53.6375 14.498 54.0052 12.9323 54.7405 11.4741C55.4759 10.0159 56.5077 8.84462 57.8361 7.96016C59.1882 7.05179 60.7538 6.59761 62.5329 6.59761C63.5292 6.59761 64.5018 6.74104 65.4506 7.02789C66.3995 7.29084 67.2534 7.75697 68.0125 8.4263C68.7953 9.09562 69.412 10.004 69.8627 11.1514C70.3372 12.2988 70.5625 13.7331 70.5388 15.4542L58.868 15.6693C58.868 16.9602 59.0222 18.1195 59.3306 19.1474C59.6627 20.1753 60.1964 20.988 60.9317 21.5857C61.6671 22.1833 62.6515 22.4821 63.885 22.4821C64.3594 22.4821 64.8932 22.3984 65.4862 22.2311C66.1029 22.0637 66.7197 21.7888 67.3364 21.4064C67.9769 21 68.5699 20.4622 69.1155 19.7928L70.7167 21.2988C69.8627 22.5179 68.9495 23.4502 67.9769 24.0956C67.0043 24.7171 66.0318 25.1355 65.0592 25.3506C64.1104 25.5657 63.2327 25.6733 62.4262 25.6733ZM59.0815 13.1594H65.6285C65.6048 12.1554 65.4625 11.3665 65.2015 10.7928C64.9643 10.1952 64.6322 9.76494 64.2052 9.50199C63.7783 9.23904 63.2801 9.10757 62.7108 9.10757C61.6671 9.10757 60.8487 9.49004 60.2557 10.255C59.6627 10.996 59.2713 11.9641 59.0815 13.1594Z" fill="#FF784D"/>
<path d="M81.5366 25.6733C79.9473 25.6733 78.4884 25.3147 77.16 24.5976C75.8317 23.8805 74.7642 22.8406 73.9577 21.4781C73.1749 20.1155 72.7835 18.4661 72.7835 16.5299C72.7835 15.1673 73.0089 13.8884 73.4596 12.6932C73.9103 11.498 74.5389 10.4462 75.3454 9.53785C76.1756 8.62948 77.1482 7.91235 78.2631 7.38646C79.4017 6.86056 80.6589 6.59761 82.0347 6.59761C83.5529 6.59761 84.8101 6.83665 85.8064 7.31474C86.8264 7.76892 87.5855 8.37849 88.0836 9.14343C88.6055 9.88446 88.8664 10.6733 88.8664 11.51C88.8664 12.2032 88.6529 12.8247 88.226 13.3745C87.8227 13.9004 87.2415 14.1753 86.4825 14.1992C85.5811 14.2231 84.9524 13.9721 84.5966 13.4462C84.2408 12.8964 84.0629 12.3705 84.0629 11.8685C84.0629 11.6534 84.0985 11.4024 84.1697 11.1155C84.2408 10.8048 84.3476 10.5299 84.4899 10.2908C84.3238 9.93227 84.0748 9.66932 83.7427 9.50199C83.4106 9.33466 83.0666 9.22709 82.7108 9.17928C82.3787 9.10757 82.1059 9.08367 81.8924 9.10757C80.7538 9.17928 79.8168 9.75299 79.0815 10.8287C78.3461 11.9044 77.9784 13.4582 77.9784 15.49C77.9784 16.6853 78.1208 17.8088 78.4054 18.8606C78.7138 19.8884 79.2119 20.7371 79.8998 21.4064C80.5878 22.0757 81.5129 22.4343 82.6752 22.4821C83.6715 22.506 84.6441 22.2669 85.5929 21.7649C86.5418 21.263 87.3483 20.5817 88.0125 19.7211L89.6492 21.3347C88.7953 22.5299 87.9057 23.4382 86.9806 24.0598C86.0555 24.6813 85.1304 25.0996 84.2052 25.3147C83.3038 25.5538 82.4143 25.6733 81.5366 25.6733Z" fill="#FF784D"/>
<path d="M98.6008 25.6733C97.8892 25.6733 97.2013 25.5896 96.5371 25.4223C95.8966 25.255 95.3036 24.9442 94.758 24.49C94.2361 24.012 93.821 23.3187 93.5126 22.4104C93.2043 21.502 93.0501 20.2948 93.0501 18.7888L93.1212 10.1474H90.7017V7.17132C91.437 7.14741 92.1487 6.89641 92.8366 6.41833C93.5245 5.94024 94.1057 5.31873 94.5801 4.55379C95.0782 3.78885 95.4103 2.98805 95.5764 2.15139H98.2094L98.1738 7.17132H102.693V9.93227L98.1738 10.0398L98.1383 18.8606C98.1383 19.4104 98.1857 19.9602 98.2806 20.51C98.3992 21.0359 98.6127 21.4781 98.9211 21.8367C99.2294 22.1713 99.6801 22.3386 100.273 22.3386C100.605 22.3386 101.056 22.2191 101.625 21.9801C102.218 21.741 102.847 21.1434 103.511 20.1873L105.219 21.8008C104.579 22.757 103.914 23.498 103.226 24.0239C102.539 24.5498 101.874 24.9323 101.234 25.1713C100.617 25.4104 100.072 25.5538 99.5971 25.6016C99.1227 25.6494 98.7906 25.6733 98.6008 25.6733Z" fill="#FF784D"/>
<path d="M116.146 25.0996C116.098 24.7649 116.063 24.49 116.039 24.2749C116.039 24.0359 116.027 23.761 116.003 23.4502C115.197 24.263 114.343 24.8367 113.441 25.1713C112.54 25.506 111.627 25.6733 110.702 25.6733C109.184 25.6733 107.997 25.2191 107.143 24.3108C106.29 23.4024 105.863 22.2669 105.863 20.9044C105.863 19.757 106.147 18.7769 106.716 17.9641C107.31 17.1514 108.08 16.494 109.029 15.992C110.002 15.4661 111.069 15.0717 112.232 14.8088C113.418 14.5219 114.604 14.3546 115.79 14.3068V12.4422C115.79 11.8207 115.707 11.259 115.541 10.757C115.398 10.255 115.138 9.86056 114.758 9.57371C114.402 9.28685 113.892 9.15538 113.228 9.17928C112.777 9.20319 112.338 9.29881 111.911 9.46614C111.484 9.63347 111.117 9.87251 110.808 10.1833C110.998 10.3984 111.117 10.6375 111.164 10.9004C111.212 11.1394 111.235 11.3546 111.235 11.5458C111.235 12.0239 111.046 12.5259 110.666 13.0518C110.287 13.5538 109.682 13.7928 108.851 13.7689C108.14 13.745 107.594 13.494 107.215 13.0159C106.835 12.5379 106.645 11.9761 106.645 11.3307C106.645 10.3745 106.977 9.5498 107.642 8.85658C108.33 8.13944 109.243 7.58964 110.381 7.20717C111.52 6.8008 112.777 6.59761 114.153 6.59761C116.241 6.59761 117.854 7.14741 118.992 8.24701C120.155 9.32271 120.736 11.0558 120.736 13.4462C120.736 14.259 120.736 14.9522 120.736 15.5259C120.736 16.0996 120.724 16.6733 120.7 17.247C120.7 17.8207 120.7 18.5139 120.7 19.3267C120.7 19.6614 120.688 20.1394 120.665 20.761C120.641 21.3586 120.605 21.9323 120.558 22.4821C120.961 22.4343 121.388 22.4104 121.839 22.4104C122.289 22.3865 122.633 22.3745 122.871 22.3745V25.0996H116.146ZM115.754 16.8526C115.09 16.9243 114.461 17.0438 113.868 17.2112C113.275 17.3785 112.754 17.6056 112.303 17.8924C111.876 18.1793 111.532 18.5259 111.271 18.9323C111.034 19.3386 110.915 19.7928 110.915 20.2948C110.939 20.9641 111.152 21.4422 111.556 21.7291C111.959 22.0159 112.421 22.1594 112.943 22.1594C113.489 22.1594 113.999 22.0398 114.473 21.8008C114.948 21.5618 115.375 21.251 115.754 20.8685C115.754 20.6295 115.754 20.4024 115.754 20.1873C115.754 19.9482 115.754 19.7092 115.754 19.4701C115.754 19.0398 115.754 18.6096 115.754 18.1793C115.754 17.7251 115.754 17.2829 115.754 16.8526Z" fill="#FF784D"/>
<path d="M127.618 25.6733C126.859 25.6733 126.23 25.3984 125.732 24.8486C125.257 24.2988 125.02 23.6414 125.02 22.8765C125.02 22.1116 125.281 21.4542 125.803 20.9044C126.325 20.3546 126.93 20.0797 127.618 20.0797C128.353 20.0797 128.958 20.3546 129.432 20.9044C129.931 21.4542 130.18 22.1116 130.18 22.8765C130.18 23.6414 129.942 24.2988 129.468 24.8486C129.017 25.3984 128.4 25.6733 127.618 25.6733Z" fill="#FF784D"/>
<path d="M132.584 34.243V31.9124C133.249 31.9124 133.723 31.7809 134.008 31.5179C134.316 31.255 134.506 30.8725 134.577 30.3705C134.672 29.8924 134.719 29.3426 134.719 28.7211V13.5538C134.719 13.1235 134.731 12.6454 134.755 12.1195C134.779 11.5697 134.814 11.0319 134.862 10.506C134.482 10.5299 134.031 10.5538 133.51 10.5777C132.988 10.5777 132.596 10.5896 132.335 10.6135V7.88845C133.45 7.88845 134.375 7.82869 135.111 7.70916C135.87 7.58964 136.463 7.44622 136.89 7.27889C137.34 7.11156 137.649 6.95618 137.815 6.81275H139.558C139.606 7.05179 139.641 7.3506 139.665 7.70916C139.689 8.04383 139.713 8.31873 139.736 8.53387C140.567 7.81673 141.385 7.31474 142.191 7.02789C143.022 6.74104 143.805 6.59761 144.54 6.59761C145.963 6.59761 147.208 6.96813 148.276 7.70916C149.367 8.4502 150.209 9.50199 150.802 10.8645C151.419 12.2271 151.727 13.8287 151.727 15.6693C151.727 17.5817 151.36 19.3028 150.624 20.8327C149.889 22.3386 148.857 23.5219 147.529 24.3825C146.224 25.243 144.682 25.6733 142.903 25.6733C142.263 25.6733 141.681 25.6016 141.16 25.4582C140.661 25.3386 140.187 25.1952 139.736 25.0279V28.4701C139.736 28.8048 139.724 29.2709 139.701 29.8685C139.701 30.49 139.677 31.0757 139.63 31.6255C140.009 31.5777 140.424 31.5418 140.875 31.5179C141.326 31.5179 141.67 31.5179 141.907 31.5179V34.243H132.584ZM142.334 22.9841C143.425 22.9602 144.267 22.6375 144.86 22.0159C145.477 21.3705 145.904 20.5339 146.141 19.506C146.378 18.4781 146.497 17.3785 146.497 16.2072C146.497 15.1076 146.366 14.0677 146.105 13.0877C145.845 12.1076 145.429 11.3187 144.86 10.7211C144.291 10.0996 143.544 9.8008 142.618 9.8247C142.025 9.84861 141.48 10.004 140.982 10.2908C140.484 10.5538 140.068 10.9243 139.736 11.4024C139.736 12.1434 139.736 12.8845 139.736 13.6255C139.736 14.3426 139.736 15.0598 139.736 15.7769C139.736 16.494 139.736 17.2231 139.736 17.9641C139.736 18.6813 139.736 19.4104 139.736 20.1514C139.736 20.8685 139.736 21.5976 139.736 22.3386C139.997 22.506 140.365 22.6614 140.839 22.8048C141.314 22.9482 141.812 23.008 142.334 22.9841Z" fill="#FF784D"/>
<path d="M154.31 22.7689C154.974 22.7689 155.449 22.6375 155.733 22.3745C156.018 22.1116 156.196 21.741 156.267 21.2629C156.362 20.761 156.409 20.1992 156.409 19.5777V13.5538C156.409 13.1235 156.421 12.6454 156.445 12.1195C156.469 11.5697 156.504 11.0319 156.552 10.506C156.172 10.5299 155.722 10.5538 155.2 10.5777C154.702 10.5777 154.322 10.5896 154.061 10.6135V7.88845H155.484C156.409 7.88845 157.252 7.76893 158.011 7.52988C158.793 7.29084 159.303 7.05179 159.541 6.81275H161.284C161.332 7.05179 161.367 7.50598 161.391 8.1753C161.415 8.82072 161.426 9.39442 161.426 9.89641C162.067 9.10757 162.672 8.4741 163.241 7.99602C163.81 7.51793 164.368 7.17132 164.913 6.95618C165.483 6.71713 166.052 6.59761 166.621 6.59761C167.452 6.59761 168.175 6.83665 168.792 7.31474C169.409 7.76892 169.717 8.52191 169.717 9.57371C169.717 9.93227 169.634 10.3147 169.468 10.7211C169.302 11.1036 169.041 11.4263 168.685 11.6892C168.329 11.9522 167.843 12.0837 167.226 12.0837C166.752 12.0837 166.266 11.9402 165.767 11.6534C165.269 11.3665 164.985 10.8167 164.913 10.004C164.439 10.004 163.965 10.2072 163.49 10.6135C163.016 10.996 162.589 11.4622 162.209 12.012C161.853 12.5378 161.604 13.0279 161.462 13.4821V19.3267C161.462 19.6614 161.45 20.1394 161.426 20.761C161.403 21.3586 161.367 21.9323 161.32 22.4821C161.699 22.4343 162.114 22.4104 162.565 22.4104C163.039 22.3865 163.395 22.3745 163.633 22.3745V25.0996H154.31V22.7689Z" fill="#FF784D"/>
<path d="M179.846 25.6733C178.138 25.6733 176.596 25.3028 175.22 24.5618C173.844 23.8207 172.753 22.7689 171.946 21.4064C171.164 20.0199 170.772 18.3944 170.772 16.5299C170.772 14.5458 171.175 12.8127 171.982 11.3307C172.812 9.8247 173.903 8.66534 175.255 7.85259C176.631 7.01594 178.126 6.59761 179.739 6.59761C181.447 6.59761 182.977 6.96813 184.329 7.70916C185.681 8.4502 186.748 9.51394 187.531 10.9004C188.314 12.2629 188.705 13.9004 188.705 15.8127C188.705 17.8207 188.326 19.5657 187.567 21.0478C186.808 22.5299 185.764 23.6773 184.436 24.49C183.107 25.2789 181.577 25.6733 179.846 25.6733ZM179.988 23.1275C180.937 23.1036 181.648 22.7689 182.123 22.1235C182.621 21.4781 182.965 20.6653 183.155 19.6853C183.344 18.7052 183.439 17.7131 183.439 16.7092C183.439 15.8247 183.368 14.9283 183.226 14.0199C183.107 13.1116 182.906 12.2869 182.621 11.5458C182.336 10.8048 181.945 10.2072 181.447 9.75299C180.972 9.29881 180.379 9.08367 179.668 9.10757C178.742 9.13148 178.007 9.46614 177.462 10.1116C176.94 10.757 176.56 11.5697 176.323 12.5498C176.109 13.506 176.003 14.51 176.003 15.5618C176.003 16.7809 176.133 17.9761 176.394 19.1474C176.655 20.3187 177.07 21.2869 177.639 22.0518C178.232 22.7928 179.015 23.1514 179.988 23.1275Z" fill="#FF784D"/>
<path d="M0 53.7849V53.3411C0.338026 53.3232 0.569307 53.247 0.693843 53.1125C0.818379 52.9691 0.885095 52.7764 0.893991 52.5344C0.911781 52.2834 0.920677 52.001 0.920677 51.6873V45.8785C0.920677 45.6992 0.925124 45.5289 0.93402 45.3675C0.942915 45.1972 0.951811 45.0448 0.960706 44.9104C0.800589 44.9193 0.640471 44.9283 0.480353 44.9373C0.320235 44.9462 0.160118 44.9552 0 44.9641V44.3725H3.00221V44.8162C2.67308 44.8252 2.4418 44.9014 2.30836 45.0448C2.18383 45.1882 2.11266 45.381 2.09487 45.623C2.08598 45.865 2.08153 46.1474 2.08153 46.4701V48.6753H3.08227L4.75016 46.0264C4.8658 45.8471 5.00813 45.6499 5.17714 45.4348C5.34615 45.2196 5.51961 45.0403 5.69752 44.8969C5.56409 44.9059 5.42621 44.9104 5.28388 44.9104C5.15045 44.9104 5.01702 44.9148 4.88359 44.9238V44.3725H7.75237V44.8162C7.37876 44.8431 7.04518 44.9059 6.75163 45.0045C6.45808 45.1031 6.17787 45.2779 5.91101 45.5289C5.64415 45.7709 5.3595 46.1384 5.05705 46.6315L3.74942 48.7291C4.00739 48.8815 4.21643 49.0608 4.37655 49.2669C4.53667 49.4641 4.69679 49.6658 4.8569 49.872L6.35134 51.8755C6.68936 52.3237 6.96512 52.6554 7.17861 52.8705C7.401 53.0767 7.5967 53.2067 7.76571 53.2605C7.94362 53.3142 8.12597 53.3411 8.31278 53.3411V53.7849H6.68491C6.59596 53.7849 6.47587 53.7221 6.32465 53.5966C6.18232 53.4711 6.02665 53.3098 5.85764 53.1125C5.68863 52.9064 5.51516 52.6912 5.33726 52.4671L3.73608 50.2888C3.56707 50.0647 3.39805 49.8541 3.22904 49.6569C3.06003 49.4507 2.89546 49.2983 2.73534 49.1997L2.08153 49.2132V52.1848C2.08153 52.4268 2.07708 52.6375 2.06819 52.8167C2.06819 52.9871 2.05929 53.1305 2.0415 53.247C2.20162 53.238 2.36174 53.2291 2.52185 53.2201C2.68197 53.2112 2.84209 53.2022 3.00221 53.1932V53.7849H0Z" fill="#F7F6F4"/>
<path d="M8.29433 53.7849V53.3411C8.56119 53.3411 8.76578 53.2694 8.90811 53.126C9.05044 52.9826 9.16608 52.7854 9.25503 52.5344C9.35288 52.2834 9.46408 51.992 9.58861 51.6604L12.3373 44.117H12.6575L15.6331 51.7679C15.7042 51.9562 15.7843 52.1982 15.8732 52.494C15.9622 52.7898 15.9978 53.0408 15.98 53.247C16.1312 53.238 16.2824 53.2291 16.4336 53.2201C16.5849 53.2112 16.7361 53.2022 16.8873 53.1932V53.7849H13.8317V53.3411C14.1698 53.3322 14.3921 53.256 14.4989 53.1125C14.6056 52.9691 14.6457 52.7988 14.619 52.6016C14.5923 52.4044 14.5478 52.2251 14.4855 52.0637L14.0185 50.7998L10.5493 50.8805L10.0823 52.3192C10.02 52.5344 9.96222 52.7047 9.90885 52.8302C9.86437 52.9557 9.811 53.0946 9.74873 53.247C9.92664 53.238 10.1001 53.2291 10.2691 53.2201C10.447 53.2112 10.6205 53.2022 10.7895 53.1932V53.7849H8.29433ZM10.7495 50.3023H13.8317L12.8844 47.7341C12.7865 47.4562 12.6842 47.1828 12.5775 46.9138C12.4796 46.636 12.3818 46.3581 12.2839 46.0802H12.2572C12.1683 46.3312 12.0749 46.5822 11.977 46.8332C11.8881 47.0842 11.7947 47.3396 11.6968 47.5996L10.7495 50.3023Z" fill="#F7F6F4"/>
<path d="M24.1268 47.2097C24.1179 46.6808 24.0645 46.2415 23.9667 45.8919C23.8688 45.5423 23.6954 45.2824 23.4463 45.1121C23.2061 44.9328 22.8548 44.8476 22.3922 44.8566H21.258L21.2447 52.1848C21.2447 52.4268 21.2402 52.6375 21.2313 52.8167C21.2313 52.9871 21.2224 53.1305 21.2046 53.247C21.3915 53.238 21.5738 53.2291 21.7517 53.2201C21.9385 53.2112 22.1253 53.2022 22.3121 53.1932V53.7849H19.1765V53.3411C19.5145 53.3232 19.7414 53.2425 19.857 53.0991C19.9815 52.9557 20.0482 52.7629 20.0571 52.5209C20.0749 52.2699 20.0838 51.992 20.0838 51.6873L20.0972 44.87L18.7228 44.8835C18.1624 44.8835 17.7666 45.0717 17.5353 45.4482C17.304 45.8247 17.1884 46.4119 17.1884 47.2097H16.6947L16.7747 44.3725H24.5538L24.6338 47.2097H24.1268Z" fill="#F7F6F4"/>
<path d="M24.5302 53.7849V53.3411C24.7971 53.3411 25.0017 53.2694 25.144 53.126C25.2863 52.9826 25.402 52.7854 25.4909 52.5344C25.5888 52.2834 25.7 51.992 25.8245 51.6604L28.5732 44.117H28.8934L31.8689 51.7679C31.9401 51.9562 32.0202 52.1982 32.1091 52.494C32.1981 52.7898 32.2337 53.0408 32.2159 53.247C32.3671 53.238 32.5183 53.2291 32.6695 53.2201C32.8208 53.2112 32.972 53.2022 33.1232 53.1932V53.7849H30.0676V53.3411C30.4056 53.3322 30.628 53.256 30.7348 53.1125C30.8415 52.9691 30.8816 52.7988 30.8549 52.6016C30.8282 52.4044 30.7837 52.2251 30.7214 52.0637L30.2544 50.7998L26.7852 50.8805L26.3182 52.3192C26.2559 52.5344 26.1981 52.7047 26.1447 52.8302C26.1003 52.9557 26.0469 53.0946 25.9846 53.247C26.1625 53.238 26.336 53.2291 26.505 53.2201C26.6829 53.2112 26.8564 53.2022 27.0254 53.1932V53.7849H24.5302ZM26.9854 50.3023H30.0676L29.1203 47.7341C29.0224 47.4562 28.9201 47.1828 28.8134 46.9138C28.7155 46.636 28.6177 46.3581 28.5198 46.0802H28.4931C28.4042 46.3312 28.3108 46.5822 28.2129 46.8332C28.124 47.0842 28.0306 47.3396 27.9327 47.5996L26.9854 50.3023Z" fill="#F7F6F4"/>
<path d="M34.2837 54C33.9635 54 33.6789 53.9193 33.4298 53.758C33.1807 53.5877 33.0562 53.3635 33.0562 53.0857C33.0562 52.8884 33.114 52.7271 33.2296 52.6016C33.3542 52.4671 33.5143 52.3954 33.71 52.3865C33.9324 52.3685 34.0969 52.4313 34.2037 52.5747C34.3104 52.7092 34.3638 52.8436 34.3638 52.9781C34.3638 53.1305 34.3193 53.2515 34.2304 53.3411C34.3015 53.4128 34.3771 53.4487 34.4572 53.4487C34.6084 53.4487 34.7819 53.3187 34.9776 53.0588C35.1822 52.7988 35.3779 52.3999 35.5647 51.8621C35.7515 51.3242 35.9072 50.6474 36.0317 49.8317C36.1562 49.007 36.2185 48.0344 36.2185 46.9138V44.9104H35.9383L34.9642 44.9641V44.3725H41.5691V44.8162C41.24 44.8252 41.0087 44.9014 40.8753 45.0448C40.7507 45.1882 40.6796 45.381 40.6618 45.623C40.6529 45.865 40.6484 46.1474 40.6484 46.4701V52.1848C40.6484 52.4268 40.644 52.6375 40.6351 52.8167C40.6351 52.9871 40.6262 53.1305 40.6084 53.247C40.7685 53.238 40.9286 53.2291 41.0887 53.2201C41.2489 53.2112 41.409 53.2022 41.5691 53.1932V53.7849H38.5535V53.3411C38.8916 53.3232 39.1229 53.247 39.2474 53.1125C39.3808 52.9691 39.452 52.7764 39.4609 52.5344C39.4787 52.2834 39.4876 52.001 39.4876 51.6873V44.8969L37.6062 44.9104C37.2859 44.9104 37.0858 45 37.0057 45.1793C36.9257 45.3496 36.8768 45.6096 36.859 45.9592C36.859 46.748 36.8323 47.5279 36.7789 48.2988C36.7255 49.0697 36.641 49.8003 36.5254 50.4905C36.4097 51.1718 36.2541 51.7769 36.0584 52.3058C35.8627 52.8347 35.6181 53.2515 35.3245 53.5563C35.031 53.8521 34.684 54 34.2837 54Z" fill="#F7F6F4"/>
<path d="M47.5522 54C46.7072 54 45.9822 53.8566 45.3773 53.5697C44.7724 53.2829 44.2787 52.9019 43.8962 52.4268C43.5226 51.9427 43.2469 51.4094 43.069 50.8267C42.891 50.244 42.8021 49.6614 42.8021 49.0787C42.8021 48.5139 42.8955 47.9447 43.0823 47.371C43.2691 46.7883 43.5537 46.255 43.9363 45.7709C44.3277 45.2869 44.8125 44.8969 45.3907 44.6011C45.9778 44.3053 46.6627 44.1574 47.4455 44.1574C48.2639 44.1574 48.9711 44.3053 49.5671 44.6011C50.1631 44.8969 50.6523 45.2913 51.0348 45.7844C51.4262 46.2684 51.7153 46.7973 51.9021 47.371C52.0978 47.9447 52.1957 48.5139 52.1957 49.0787C52.1957 49.6345 52.1023 50.2037 51.9155 50.7864C51.7286 51.3601 51.4395 51.8934 51.0481 52.3865C50.6656 52.8705 50.1853 53.2605 49.6071 53.5563C49.0289 53.8521 48.3439 54 47.5522 54ZM47.5789 53.4487C48.1305 53.4487 48.6108 53.3322 49.02 53.0991C49.4292 52.8571 49.7672 52.5388 50.0341 52.1444C50.3098 51.741 50.5144 51.2973 50.6479 50.8132C50.7902 50.3202 50.8613 49.8272 50.8613 49.3342C50.8613 48.7784 50.7857 48.2271 50.6345 47.6803C50.4833 47.1335 50.2609 46.636 49.9674 46.1878C49.6738 45.7395 49.3091 45.381 48.8732 45.1121C48.4462 44.8342 47.957 44.6952 47.4055 44.6952C46.854 44.6952 46.3692 44.8162 45.9511 45.0583C45.5419 45.3003 45.1994 45.623 44.9236 46.0264C44.6568 46.4208 44.4522 46.8645 44.3099 47.3576C44.1764 47.8416 44.1097 48.3347 44.1097 48.8367C44.1097 49.3297 44.1764 49.8451 44.3099 50.383C44.4522 50.9208 44.6657 51.4228 44.9503 51.8889C45.235 52.3551 45.5953 52.7316 46.0311 53.0184C46.467 53.3053 46.9829 53.4487 47.5789 53.4487Z" fill="#F7F6F4"/>
<path d="M53.3986 53.7849V53.3411C53.7367 53.3232 53.9679 53.247 54.0925 53.1125C54.217 52.9691 54.2837 52.7764 54.2926 52.5344C54.3104 52.2834 54.3193 52.001 54.3193 51.6873V45.8785C54.3193 45.6992 54.3237 45.5289 54.3326 45.3675C54.3415 45.1972 54.3504 45.0448 54.3593 44.9104C54.1992 44.9193 54.0391 44.9283 53.879 44.9373C53.7189 44.9462 53.5587 44.9552 53.3986 44.9641V44.3725H59.5898L59.6566 46.7256H59.1629C59.1629 46.1967 59.0828 45.7978 58.9227 45.5289C58.7626 45.251 58.5491 45.0672 58.2822 44.9776C58.0154 44.879 57.7129 44.8342 57.3749 44.8431L56.4008 44.87C56.0717 44.879 55.8449 44.9597 55.7203 45.1121C55.5958 45.2555 55.5246 45.4482 55.5068 45.6902C55.4891 45.9323 55.4802 46.2102 55.4802 46.5239V52.1848C55.4802 52.4268 55.4757 52.6375 55.4668 52.8167C55.4668 52.9871 55.4579 53.1305 55.4401 53.247C55.5913 53.238 55.7426 53.2336 55.8938 53.2336C56.045 53.2246 56.1962 53.2156 56.3475 53.2067C56.4987 53.1977 56.6499 53.1932 56.8011 53.1932V53.7849H53.3986Z" fill="#F7F6F4"/>
<path d="M64.2139 53.7849V53.3411C64.5519 53.3232 64.7832 53.247 64.9077 53.1125C65.0322 52.9691 65.099 52.7764 65.1079 52.5344C65.1256 52.2834 65.1345 52.001 65.1345 51.6873V45.8785C65.1345 45.6992 65.139 45.5289 65.1479 45.3675C65.1568 45.1972 65.1657 45.0448 65.1746 44.9104C65.0145 44.9193 64.8543 44.9283 64.6942 44.9373C64.5341 44.9462 64.374 44.9552 64.2139 44.9641V44.3725H67.2161V44.8162C66.8869 44.8252 66.6557 44.9014 66.5222 45.0448C66.3977 45.1882 66.3265 45.381 66.3087 45.623C66.2999 45.865 66.2954 46.1474 66.2954 46.4701V48.7022H71.0722V45.8785C71.0722 45.6992 71.0767 45.5289 71.0856 45.3675C71.0945 45.1972 71.1034 45.0448 71.1123 44.9104C70.9521 44.9193 70.792 44.9283 70.6319 44.9373C70.4718 44.9462 70.3117 44.9552 70.1516 44.9641V44.3725H73.1538V44.8162C72.8246 44.8252 72.5934 44.9014 72.4599 45.0448C72.3354 45.1882 72.2642 45.381 72.2464 45.623C72.2375 45.865 72.2331 46.1474 72.2331 46.4701V52.1848C72.2331 52.4268 72.2286 52.6375 72.2197 52.8167C72.2197 52.9871 72.2109 53.1305 72.1931 53.247C72.3532 53.238 72.5133 53.2291 72.6734 53.2201C72.8335 53.2112 72.9937 53.2022 73.1538 53.1932V53.7849H70.1516V53.3411C70.4896 53.3232 70.7209 53.247 70.8454 53.1125C70.9699 52.9691 71.0367 52.7764 71.0456 52.5344C71.0633 52.2834 71.0722 52.001 71.0722 51.6873V49.24L66.2954 49.2938V52.1848C66.2954 52.4268 66.2909 52.6375 66.2821 52.8167C66.2821 52.9871 66.2732 53.1305 66.2554 53.247C66.4155 53.238 66.5756 53.2291 66.7357 53.2201C66.8958 53.2112 67.056 53.2022 67.2161 53.1932V53.7849H64.2139Z" fill="#F7F6F4"/>
<path d="M73.8112 53.7849V53.3411C74.0781 53.3411 74.2827 53.2694 74.425 53.126C74.5673 52.9826 74.683 52.7854 74.7719 52.5344C74.8698 52.2834 74.981 51.992 75.1055 51.6604L77.8542 44.117H78.1744L81.15 51.7679C81.2211 51.9562 81.3012 52.1982 81.3901 52.494C81.4791 52.7898 81.5147 53.0408 81.4969 53.247C81.6481 53.238 81.7993 53.2291 81.9506 53.2201C82.1018 53.2112 82.253 53.2022 82.4042 53.1932V53.7849H79.3486V53.3411C79.6867 53.3322 79.909 53.256 80.0158 53.1125C80.1225 52.9691 80.1626 52.7988 80.1359 52.6016C80.1092 52.4044 80.0647 52.2251 80.0024 52.0637L79.5354 50.7998L76.0662 50.8805L75.5992 52.3192C75.5369 52.5344 75.4791 52.7047 75.4258 52.8302C75.3813 52.9557 75.3279 53.0946 75.2656 53.247C75.4436 53.238 75.617 53.2291 75.786 53.2201C75.9639 53.2112 76.1374 53.2022 76.3064 53.1932V53.7849H73.8112ZM76.2664 50.3023H79.3486L78.4013 47.7341C78.3034 47.4562 78.2011 47.1828 78.0944 46.9138C77.9965 46.636 77.8987 46.3581 77.8008 46.0802H77.7741C77.6852 46.3312 77.5918 46.5822 77.4939 46.8332C77.405 47.0842 77.3116 47.3396 77.2137 47.5996L76.2664 50.3023Z" fill="#F7F6F4"/>
<path d="M90.2913 47.371C90.2023 46.5284 89.9088 45.874 89.4106 45.4079C88.9214 44.9417 88.2898 44.7087 87.5159 44.7087C87.0444 44.7087 86.5997 44.8118 86.1816 45.0179C85.7724 45.2151 85.4121 45.502 85.1008 45.8785C84.7894 46.255 84.5448 46.7077 84.3669 47.2366C84.189 47.7654 84.1 48.3616 84.1 49.0249C84.1 49.8675 84.2602 50.6116 84.5804 51.257C84.9006 51.9024 85.3321 52.4044 85.8747 52.7629C86.4173 53.1215 87.0177 53.3008 87.676 53.3008C88.2542 53.3008 88.8235 53.1708 89.3839 52.9109C89.9443 52.6419 90.4025 52.2565 90.7583 51.7545L91.1052 52.0369C90.7227 52.5657 90.3091 52.9736 89.8643 53.2605C89.4195 53.5473 88.9747 53.74 88.53 53.8386C88.0941 53.9462 87.6938 54 87.3291 54C86.6619 54 86.0481 53.879 85.4877 53.637C84.9362 53.3949 84.4559 53.0588 84.0467 52.6285C83.6464 52.1892 83.335 51.6828 83.1127 51.1091C82.8992 50.5264 82.7924 49.8989 82.7924 49.2266C82.7924 48.5901 82.8858 47.9716 83.0726 47.371C83.2683 46.7704 83.5574 46.2281 83.9399 45.744C84.3224 45.26 84.8028 44.8745 85.381 44.5877C85.9681 44.3008 86.6486 44.1574 87.4225 44.1574C87.9206 44.1574 88.3921 44.2246 88.8369 44.3591C89.2816 44.4935 89.7086 44.6997 90.1178 44.9776L90.0511 44.2515H90.7716V47.371H90.2913Z" fill="#F7F6F4"/>
<path d="M96.8857 50.3023C96.8857 49.9079 96.8323 49.6255 96.7256 49.4552C96.6188 49.2849 96.4498 49.1818 96.2185 49.1459C95.9873 49.1101 95.6804 49.1011 95.2979 49.119L94.3238 49.1594V52.2385C94.3238 52.4806 94.3194 52.6868 94.3105 52.8571C94.3105 53.0274 94.3016 53.1708 94.2838 53.2874L96.8323 53.247C97.2237 53.238 97.5618 53.1753 97.8464 53.0588C98.1311 52.9333 98.3534 52.7181 98.5136 52.4133C98.6737 52.1086 98.7537 51.6917 98.7537 51.1628H99.2074L99.1273 53.7849H92.2423V53.3411C92.5803 53.3232 92.8116 53.247 92.9361 53.1125C93.0607 52.9691 93.1274 52.7764 93.1363 52.5344C93.1541 52.2834 93.163 52.001 93.163 51.6873V45.8785C93.163 45.6992 93.1674 45.5289 93.1763 45.3675C93.1852 45.1972 93.1941 45.0448 93.203 44.9104C93.0429 44.9193 92.8828 44.9283 92.7226 44.9373C92.5625 44.9462 92.4024 44.9552 92.2423 44.9641V44.3725H98.6603L98.7271 46.7256H98.2867C98.2867 46.1967 98.2067 45.7978 98.0466 45.5289C97.8864 45.251 97.6685 45.0672 97.3927 44.9776C97.1259 44.879 96.8234 44.8342 96.4854 44.8431L95.3379 44.87C95.0088 44.879 94.773 44.9417 94.6307 45.0583C94.4884 45.1748 94.3994 45.3496 94.3638 45.5827C94.3372 45.8068 94.3238 46.1026 94.3238 46.4701V48.6215L96.8323 48.635L96.7389 47.4786H97.326V50.3023H96.8857Z" fill="#F7F6F4"/>
<path d="M100.543 53.7849V53.3411C100.881 53.3232 101.112 53.247 101.236 53.1125C101.361 52.9691 101.428 52.7764 101.437 52.5344C101.454 52.2834 101.463 52.001 101.463 51.6873V45.8785C101.463 45.6992 101.468 45.5289 101.477 45.3675C101.486 45.1972 101.494 45.0448 101.503 44.9104C101.343 44.9193 101.183 44.9283 101.023 44.9373C100.863 44.9462 100.703 44.9552 100.543 44.9641V44.3725H103.545V44.8162C103.216 44.8252 102.984 44.9014 102.851 45.0448C102.726 45.1882 102.655 45.381 102.638 45.623C102.629 45.865 102.624 46.1474 102.624 46.4701V48.6753H103.625L105.293 46.0264C105.408 45.8471 105.551 45.6499 105.72 45.4348C105.889 45.2196 106.062 45.0403 106.24 44.8969C106.107 44.9059 105.969 44.9104 105.827 44.9104C105.693 44.9104 105.56 44.9148 105.426 44.9238V44.3725H108.295V44.8162C107.921 44.8431 107.588 44.9059 107.294 45.0045C107.001 45.1031 106.721 45.2779 106.454 45.5289C106.187 45.7709 105.902 46.1384 105.6 46.6315L104.292 48.7291C104.55 48.8815 104.759 49.0608 104.919 49.2669C105.079 49.4641 105.239 49.6658 105.4 49.872L106.894 51.8755C107.232 52.3237 107.508 52.6554 107.721 52.8705C107.944 53.0767 108.139 53.2067 108.308 53.2605C108.486 53.3142 108.669 53.3411 108.855 53.3411V53.7849H107.228C107.139 53.7849 107.019 53.7221 106.867 53.5966C106.725 53.4711 106.569 53.3098 106.4 53.1125C106.231 52.9064 106.058 52.6912 105.88 52.4671L104.279 50.2888C104.11 50.0647 103.941 49.8541 103.772 49.6569C103.603 49.4507 103.438 49.2983 103.278 49.1997L102.624 49.2132V52.1848C102.624 52.4268 102.62 52.6375 102.611 52.8167C102.611 52.9871 102.602 53.1305 102.584 53.247C102.744 53.238 102.904 53.2291 103.065 53.2201C103.225 53.2112 103.385 53.2022 103.545 53.1932V53.7849H100.543Z" fill="#F7F6F4"/>
<path d="M113.955 54C113.11 54 112.385 53.8566 111.78 53.5697C111.175 53.2829 110.682 52.9019 110.299 52.4268C109.926 51.9427 109.65 51.4094 109.472 50.8267C109.294 50.244 109.205 49.6614 109.205 49.0787C109.205 48.5139 109.298 47.9447 109.485 47.371C109.672 46.7883 109.957 46.255 110.339 45.7709C110.731 45.2869 111.215 44.8969 111.794 44.6011C112.381 44.3053 113.066 44.1574 113.848 44.1574C114.667 44.1574 115.374 44.3053 115.97 44.6011C116.566 44.8969 117.055 45.2913 117.438 45.7844C117.829 46.2684 118.118 46.7973 118.305 47.371C118.501 47.9447 118.599 48.5139 118.599 49.0787C118.599 49.6345 118.505 50.2037 118.318 50.7864C118.132 51.3601 117.843 51.8934 117.451 52.3865C117.069 52.8705 116.588 53.2605 116.01 53.5563C115.432 53.8521 114.747 54 113.955 54ZM113.982 53.4487C114.533 53.4487 115.014 53.3322 115.423 53.0991C115.832 52.8571 116.17 52.5388 116.437 52.1444C116.713 51.741 116.917 51.2973 117.051 50.8132C117.193 50.3202 117.264 49.8272 117.264 49.3342C117.264 48.7784 117.189 48.2271 117.037 47.6803C116.886 47.1335 116.664 46.636 116.37 46.1878C116.077 45.7395 115.712 45.381 115.276 45.1121C114.849 44.8342 114.36 44.6952 113.808 44.6952C113.257 44.6952 112.772 44.8162 112.354 45.0583C111.945 45.3003 111.602 45.623 111.327 46.0264C111.06 46.4208 110.855 46.8645 110.713 47.3576C110.579 47.8416 110.513 48.3347 110.513 48.8367C110.513 49.3297 110.579 49.8451 110.713 50.383C110.855 50.9208 111.069 51.4228 111.353 51.8889C111.638 52.3551 111.998 52.7316 112.434 53.0184C112.87 53.3053 113.386 53.4487 113.982 53.4487Z" fill="#F7F6F4"/>
<path d="M124.949 53.9193C124.558 53.0229 124.162 52.131 123.762 51.2435C123.361 50.3471 122.97 49.4417 122.588 48.5274C122.463 48.2405 122.338 47.9537 122.214 47.6668C122.098 47.371 121.983 47.0752 121.867 46.7794C121.76 46.4836 121.649 46.1878 121.533 45.8919C121.533 45.9905 121.529 46.0891 121.52 46.1878C121.52 46.2864 121.52 46.385 121.52 46.4836C121.511 46.8063 121.498 47.1962 121.48 47.6534C121.471 48.1016 121.458 48.5857 121.44 49.1056C121.422 49.6165 121.409 50.132 121.4 50.6519C121.391 51.1628 121.382 51.6469 121.373 52.1041C121.364 52.3013 121.355 52.4985 121.347 52.6957C121.347 52.8929 121.338 53.0767 121.32 53.247C121.489 53.238 121.653 53.2291 121.814 53.2201C121.983 53.2112 122.152 53.2022 122.321 53.1932V53.7849H119.772V53.3411C120.048 53.3322 120.248 53.2739 120.373 53.1663C120.506 53.0498 120.59 52.8974 120.626 52.7092C120.662 52.5209 120.684 52.3192 120.693 52.1041L120.946 45.9726C120.955 45.7933 120.96 45.614 120.96 45.4348C120.969 45.2555 120.977 45.0807 120.986 44.9104C120.826 44.9193 120.666 44.9283 120.506 44.9373C120.346 44.9373 120.186 44.9417 120.026 44.9507V44.3725H122.067L124.362 49.7107C124.478 49.9796 124.589 50.2485 124.696 50.5174C124.811 50.7864 124.927 51.0553 125.043 51.3242C125.167 51.5931 125.287 51.8665 125.403 52.1444H125.43C125.527 51.9024 125.643 51.6155 125.777 51.2839C125.91 50.9432 126.021 50.6519 126.11 50.4099C126.501 49.4238 126.906 48.4378 127.324 47.4517C127.751 46.4567 128.169 45.4303 128.579 44.3725H130.553V44.8162C130.331 44.8073 130.149 44.8521 130.006 44.9507C129.864 45.0403 129.762 45.1927 129.699 45.4079C129.637 45.623 129.615 45.9143 129.633 46.2819L129.98 52.3999C129.997 52.5523 130.006 52.7002 130.006 52.8436C130.006 52.987 130.006 53.117 130.006 53.2336C130.166 53.2246 130.327 53.2201 130.487 53.2201C130.656 53.2112 130.82 53.2022 130.98 53.1932V53.7849H127.991V53.3411C128.267 53.3322 128.472 53.2649 128.605 53.1394C128.739 53.0139 128.819 52.8347 128.845 52.6016C128.881 52.3685 128.89 52.0817 128.872 51.741L128.605 47.3038C128.596 47.1604 128.587 47.0169 128.579 46.8735C128.57 46.7301 128.561 46.5867 128.552 46.4432C128.543 46.2998 128.534 46.1564 128.525 46.013C128.499 46.0757 128.467 46.1429 128.432 46.2146C128.405 46.2864 128.378 46.3626 128.352 46.4432L125.35 53.9193H124.949Z" fill="#F7F6F4"/>
<path d="M132.167 53.7849V53.3411C132.497 53.3322 132.723 53.2605 132.848 53.126C132.973 52.9826 133.044 52.7898 133.061 52.5478C133.079 52.2968 133.088 52.01 133.088 51.6873V45.8785C133.088 45.6992 133.093 45.5289 133.101 45.3675C133.11 45.1972 133.119 45.0448 133.128 44.9104C132.968 44.9193 132.808 44.9283 132.648 44.9373C132.488 44.9462 132.328 44.9552 132.167 44.9641V44.3725H135.17V44.8162C134.841 44.8252 134.609 44.9014 134.476 45.0448C134.351 45.1882 134.28 45.381 134.262 45.623C134.253 45.865 134.249 46.1474 134.249 46.4701V48.3123L135.33 48.2719C136.015 48.254 136.593 48.3078 137.064 48.4333C137.536 48.5498 137.914 48.7291 138.199 48.9711C138.483 49.2131 138.688 49.5 138.812 49.8317C138.946 50.1633 139.012 50.5264 139.012 50.9208C139.012 51.5483 138.879 52.0772 138.612 52.5075C138.345 52.9288 137.99 53.247 137.545 53.4622C137.1 53.6773 136.606 53.7849 136.064 53.7849H132.167ZM134.209 53.247C134.351 53.256 134.52 53.2649 134.716 53.2739C134.921 53.2739 135.107 53.2739 135.276 53.2739C135.454 53.2739 135.57 53.2739 135.623 53.2739C136.015 53.2739 136.371 53.1932 136.691 53.0319C137.011 52.8705 137.265 52.6195 137.451 52.2789C137.638 51.9383 137.732 51.5035 137.732 50.9746C137.732 50.4009 137.625 49.9572 137.411 49.6434C137.207 49.3297 136.944 49.1101 136.624 48.9846C136.304 48.8501 135.97 48.7829 135.623 48.7829C135.356 48.7829 135.112 48.7873 134.889 48.7963C134.676 48.7963 134.462 48.8053 134.249 48.8232C134.249 49.6927 134.249 50.4009 134.249 50.9477C134.249 51.4856 134.245 51.9069 134.236 52.2117C134.236 52.5075 134.231 52.7316 134.222 52.884C134.222 53.0364 134.218 53.1574 134.209 53.247ZM139.693 53.7849V53.3411C140.031 53.3232 140.262 53.247 140.387 53.1125C140.511 52.9691 140.578 52.7764 140.587 52.5344C140.605 52.2834 140.614 52.001 140.614 51.6873V45.8785C140.614 45.6992 140.614 45.5289 140.614 45.3675C140.623 45.1972 140.636 45.0448 140.654 44.9104C140.494 44.9193 140.333 44.9283 140.173 44.9373C140.013 44.9462 139.853 44.9552 139.693 44.9641V44.3725H142.695V44.8162C142.366 44.8252 142.135 44.9014 142.001 45.0448C141.877 45.1882 141.806 45.381 141.788 45.623C141.779 45.865 141.775 46.1474 141.775 46.4701V52.1848C141.775 52.4268 141.77 52.6375 141.761 52.8167C141.752 52.9871 141.739 53.1305 141.721 53.247C141.881 53.238 142.041 53.2291 142.202 53.2201C142.371 53.2112 142.535 53.2022 142.695 53.1932V53.7849H139.693Z" fill="#F7F6F4"/>
<path d="M143.595 53.7849V53.3411C144.022 53.2515 144.355 53.0722 144.595 52.8033C144.845 52.5254 145.12 52.1668 145.423 51.7276L147.157 49.2266C146.544 48.3571 146.063 47.6803 145.716 47.1962C145.369 46.7032 145.098 46.3177 144.902 46.0398C144.733 45.7799 144.604 45.5737 144.515 45.4213C144.435 45.2689 144.36 45.1076 144.289 44.9373C144.173 44.9462 144.053 44.9507 143.928 44.9507C143.804 44.9507 143.679 44.9552 143.555 44.9641V44.3725H147.011V44.8162L146.423 44.8431C146.103 44.8521 145.908 44.9148 145.836 45.0314C145.774 45.1389 145.779 45.2734 145.85 45.4348C145.93 45.5961 146.019 45.762 146.117 45.9323C146.277 46.2012 146.504 46.5508 146.797 46.9811C147.1 47.4024 147.424 47.8551 147.771 48.3391L149.052 46.4701C149.283 46.1474 149.501 45.8382 149.706 45.5423C149.919 45.2465 150.097 45.0359 150.24 44.9104C150.053 44.9193 149.866 44.9283 149.679 44.9373C149.492 44.9462 149.306 44.9552 149.119 44.9641V44.3725H151.747V44.8162C151.463 44.8521 151.196 44.9686 150.947 45.1658C150.698 45.3631 150.466 45.6006 150.253 45.8785C150.039 46.1474 149.839 46.4163 149.652 46.6853L148.145 48.8367C148.465 49.2669 148.776 49.6883 149.079 50.1006C149.39 50.504 149.67 50.8715 149.919 51.2032C150.168 51.5259 150.36 51.7814 150.493 51.9696C150.644 52.1758 150.796 52.3865 150.947 52.6016C151.107 52.8078 151.263 53.0139 151.414 53.2201C151.538 53.2112 151.667 53.2067 151.801 53.2067C151.934 53.2067 152.063 53.2022 152.188 53.1932V53.7849H148.919V53.3411C149.266 53.3501 149.492 53.3053 149.599 53.2067C149.706 53.0991 149.737 52.9691 149.693 52.8167C149.657 52.6554 149.586 52.503 149.479 52.3596C149.274 52.0817 148.999 51.7231 148.652 51.2839C148.305 50.8357 147.927 50.3247 147.518 49.751C147.295 50.0737 147.073 50.4009 146.85 50.7326C146.637 51.0553 146.419 51.387 146.197 51.7276C146.037 51.9696 145.867 52.2206 145.69 52.4806C145.521 52.7405 145.325 53.0005 145.102 53.2605C145.289 53.2425 145.472 53.2291 145.65 53.2201C145.836 53.2112 146.023 53.2022 146.21 53.1932V53.7849H143.595Z" fill="#F7F6F4"/>
<path d="M161.369 53.9193C160.978 53.0229 160.582 52.131 160.182 51.2435C159.781 50.3471 159.39 49.4417 159.008 48.5274C158.883 48.2405 158.758 47.9537 158.634 47.6668C158.518 47.371 158.403 47.0752 158.287 46.7794C158.18 46.4836 158.069 46.1878 157.953 45.8919C157.953 45.9905 157.949 46.0891 157.94 46.1878C157.94 46.2864 157.94 46.385 157.94 46.4836C157.931 46.8063 157.918 47.1962 157.9 47.6534C157.891 48.1016 157.878 48.5857 157.86 49.1056C157.842 49.6165 157.829 50.132 157.82 50.6519C157.811 51.1628 157.802 51.6469 157.793 52.1041C157.784 52.3013 157.775 52.4985 157.767 52.6957C157.767 52.8929 157.758 53.0767 157.74 53.247C157.909 53.238 158.074 53.2291 158.234 53.2201C158.403 53.2112 158.572 53.2022 158.741 53.1932V53.7849H156.192V53.3411C156.468 53.3322 156.668 53.2739 156.793 53.1663C156.926 53.0498 157.01 52.8974 157.046 52.7092C157.082 52.5209 157.104 52.3192 157.113 52.1041L157.366 45.9726C157.375 45.7933 157.38 45.614 157.38 45.4348C157.389 45.2555 157.397 45.0807 157.406 44.9104C157.246 44.9193 157.086 44.9283 156.926 44.9373C156.766 44.9373 156.606 44.9417 156.446 44.9507V44.3725H158.487L160.782 49.7107C160.898 49.9796 161.009 50.2485 161.116 50.5174C161.231 50.7864 161.347 51.0553 161.463 51.3242C161.587 51.5931 161.707 51.8665 161.823 52.1444H161.85C161.947 51.9024 162.063 51.6155 162.197 51.2839C162.33 50.9432 162.441 50.6519 162.53 50.4099C162.922 49.4238 163.326 48.4378 163.744 47.4517C164.171 46.4567 164.589 45.4303 164.999 44.3725H166.973V44.8162C166.751 44.8073 166.569 44.8521 166.426 44.9507C166.284 45.0403 166.182 45.1927 166.119 45.4079C166.057 45.623 166.035 45.9143 166.053 46.2819L166.4 52.3999C166.417 52.5523 166.426 52.7002 166.426 52.8436C166.426 52.987 166.426 53.117 166.426 53.2336C166.586 53.2246 166.747 53.2201 166.907 53.2201C167.076 53.2112 167.24 53.2022 167.4 53.1932V53.7849H164.411V53.3411C164.687 53.3322 164.892 53.2649 165.025 53.1394C165.159 53.0139 165.239 52.8347 165.265 52.6016C165.301 52.3685 165.31 52.0817 165.292 51.741L165.025 47.3038C165.016 47.1604 165.007 47.0169 164.999 46.8735C164.99 46.7301 164.981 46.5867 164.972 46.4432C164.963 46.2998 164.954 46.1564 164.945 46.013C164.919 46.0757 164.887 46.1429 164.852 46.2146C164.825 46.2864 164.798 46.3626 164.772 46.4432L161.77 53.9193H161.369Z" fill="#F7F6F4"/>
<path d="M171.59 44.8162C171.261 44.8252 171.029 44.9014 170.896 45.0448C170.771 45.1882 170.7 45.381 170.682 45.623C170.673 45.865 170.669 46.1474 170.669 46.4701V52.1848C170.669 52.4268 170.665 52.6375 170.656 52.8167C170.656 52.9871 170.647 53.1305 170.629 53.247C170.789 53.238 170.949 53.2291 171.109 53.2201C171.269 53.2112 171.43 53.2022 171.59 53.1932V53.7849H168.587V53.3411C168.925 53.3232 169.157 53.247 169.281 53.1125C169.406 52.9691 169.473 52.7764 169.481 52.5344C169.499 52.2834 169.508 52.001 169.508 51.6873V45.8785C169.508 45.6992 169.513 45.5289 169.521 45.3675C169.53 45.1972 169.539 45.0448 169.548 44.9104C169.388 44.9193 169.228 44.9283 169.068 44.9373C168.908 44.9462 168.748 44.9552 168.587 44.9641V44.3725H171.59V44.8162ZM177.661 44.8162C177.332 44.8252 177.1 44.9014 176.967 45.0448C176.842 45.1882 176.771 45.381 176.753 45.623C176.745 45.865 176.74 46.1474 176.74 46.4701V52.1848C176.74 52.4268 176.736 52.6375 176.727 52.8167C176.727 52.9871 176.718 53.1305 176.7 53.247C176.86 53.238 177.02 53.2291 177.18 53.2201C177.341 53.2112 177.501 53.2022 177.661 53.1932V53.7849H174.659V53.3411C174.997 53.3232 175.228 53.247 175.352 53.1125C175.477 52.9691 175.544 52.7764 175.553 52.5344C175.57 52.2834 175.579 52.001 175.579 51.6873V45.8785C175.579 45.6992 175.584 45.5289 175.593 45.3675C175.602 45.1972 175.61 45.0448 175.619 44.9104C175.459 44.9193 175.299 44.9283 175.139 44.9373C174.979 44.9462 174.819 44.9552 174.659 44.9641V44.3725H177.661V44.8162ZM175.913 45.0314L176.286 45.3944L170.175 53.0857L169.762 52.6957L175.913 45.0314Z" fill="#F7F6F4"/>
<path d="M179.129 53.3411C179.467 53.3232 179.698 53.247 179.823 53.1125C179.947 52.9691 180.014 52.7764 180.023 52.5344C180.041 52.2834 180.05 52.001 180.05 51.6873V45.8785C180.05 45.6992 180.054 45.5289 180.063 45.3675C180.072 45.1972 180.081 45.0448 180.09 44.9104C179.93 44.9193 179.77 44.9283 179.609 44.9373C179.449 44.9462 179.289 44.9552 179.129 44.9641V44.3725C179.601 44.3635 180.085 44.3591 180.583 44.3591C181.082 44.3501 181.589 44.3456 182.105 44.3456C182.967 44.3456 183.692 44.4442 184.28 44.6414C184.867 44.8386 185.316 45.13 185.627 45.5154C185.939 45.9009 186.108 46.3805 186.134 46.9542C186.152 47.3038 186.099 47.6713 185.974 48.0568C185.858 48.4333 185.636 48.7918 185.307 49.1325C184.987 49.4641 184.533 49.7331 183.946 49.9392C183.359 50.1454 182.607 50.2485 181.691 50.2485C181.655 50.2485 181.589 50.2485 181.491 50.2485C181.393 50.2485 181.3 50.244 181.211 50.2351V52.1848C181.211 52.4268 181.206 52.6375 181.197 52.8167C181.197 52.9871 181.188 53.1305 181.171 53.247C181.313 53.238 181.451 53.2291 181.584 53.2201C181.718 53.2112 181.851 53.2067 181.985 53.2067C182.127 53.1977 182.265 53.1887 182.398 53.1798V53.7849H179.129V53.3411ZM181.211 49.6838C181.38 49.7017 181.522 49.7151 181.638 49.7241C181.762 49.7241 181.909 49.7241 182.078 49.7241C182.585 49.7241 183.048 49.6255 183.466 49.4283C183.884 49.2221 184.217 48.9308 184.466 48.5543C184.715 48.1778 184.84 47.7296 184.84 47.2097C184.84 46.7883 184.773 46.4298 184.64 46.134C184.506 45.8292 184.315 45.5872 184.066 45.4079C183.826 45.2196 183.537 45.0852 183.199 45.0045C182.861 44.9148 182.487 44.87 182.078 44.87C181.767 44.87 181.549 44.9373 181.424 45.0717C181.308 45.2062 181.242 45.3944 181.224 45.6365C181.215 45.8695 181.211 46.1474 181.211 46.4701V49.6838Z" fill="#F7F6F4"/>
<path d="M186.407 53.7849V53.3411C186.674 53.3411 186.878 53.2694 187.021 53.126C187.163 52.9826 187.279 52.7854 187.368 52.5344C187.466 52.2834 187.577 51.992 187.701 51.6604L190.45 44.117H190.77L193.746 51.7679C193.817 51.9562 193.897 52.1982 193.986 52.494C194.075 52.7898 194.11 53.0408 194.093 53.247C194.244 53.238 194.395 53.2291 194.546 53.2201C194.698 53.2112 194.849 53.2022 195 53.1932V53.7849H191.944V53.3411C192.282 53.3322 192.505 53.256 192.612 53.1125C192.718 52.9691 192.758 52.7988 192.732 52.6016C192.705 52.4044 192.661 52.2251 192.598 52.0637L192.131 50.7998L188.662 50.8805L188.195 52.3192C188.133 52.5344 188.075 52.7047 188.022 52.8302C187.977 52.9557 187.924 53.0946 187.861 53.247C188.039 53.238 188.213 53.2291 188.382 53.2201C188.56 53.2112 188.733 53.2022 188.902 53.1932V53.7849H186.407ZM188.862 50.3023H191.944L190.997 47.7341C190.899 47.4562 190.797 47.1828 190.69 46.9138C190.592 46.636 190.494 46.3581 190.397 46.0802H190.37C190.281 46.3312 190.188 46.5822 190.09 46.8332C190.001 47.0842 189.907 47.3396 189.81 47.5996L188.862 50.3023Z" fill="#F7F6F4"/>
</svg>
