<svg width="221" height="78" viewBox="0 0 221 78" fill="none" xmlns="http://www.w3.org/2000/svg">
<path d="M13.48 15.14C12.8933 15.1667 12.3867 15.2467 11.96 15.38C11.5333 15.5133 11.2 15.82 10.96 16.3C10.7467 16.7533 10.64 17.5267 10.64 18.62V33.94C10.64 34.66 10.6267 35.3533 10.6 36.02C10.5733 36.6867 10.5333 37.1933 10.48 37.54C10.9067 37.4867 11.44 37.46 12.08 37.46C12.7467 37.4333 13.2133 37.42 13.48 37.42V40.5H2V37.86C2.61333 37.8333 3.12 37.7533 3.52 37.62C3.94667 37.4867 4.26667 37.18 4.48 36.7C4.72 36.22 4.84 35.4467 4.84 34.38V19.06C4.84 18.34 4.85333 17.6467 4.88 16.98C4.93333 16.3133 4.97333 15.8067 5 15.46C4.57333 15.4867 4.04 15.5133 3.4 15.54C2.76 15.54 2.29333 15.5533 2 15.58V12.5H13.48V15.14ZM16.6791 40.5V37.9C17.4257 37.9 17.9591 37.7533 18.2791 37.46C18.5991 37.1667 18.7991 36.7533 18.8791 36.22C18.9857 35.66 19.0391 35.0333 19.0391 34.34V27.62C19.0391 27.14 19.0524 26.6067 19.0791 26.02C19.1057 25.4067 19.1457 24.8067 19.1991 24.22C18.7724 24.2467 18.2657 24.2733 17.6791 24.3C17.1191 24.3 16.6924 24.3133 16.3991 24.34V21.3C17.6257 21.3 18.6657 21.2333 19.5191 21.1C20.3724 20.9667 21.0391 20.8067 21.5191 20.62C22.0257 20.4333 22.3724 20.26 22.5591 20.1H24.5191C24.5724 20.4467 24.5991 20.7 24.5991 20.86C24.5991 21.02 24.5991 21.18 24.5991 21.34C24.6257 21.4733 24.6791 21.7267 24.7591 22.1C25.2924 21.6733 25.9057 21.3 26.5991 20.98C27.2924 20.6333 27.9857 20.3667 28.6791 20.18C29.3724 19.9667 29.9857 19.86 30.5191 19.86C32.9724 19.86 34.7057 20.5667 35.7191 21.98C36.7591 23.3667 37.2791 25.6067 37.2791 28.7V34.06C37.2791 34.4333 37.2657 34.9667 37.2391 35.66C37.2124 36.3267 37.1724 36.9667 37.1191 37.58C37.5724 37.5267 38.0524 37.5 38.5591 37.5C39.0657 37.4733 39.4524 37.46 39.7191 37.46V40.5H29.2391V37.9C29.9857 37.9 30.5191 37.7533 30.8391 37.46C31.1857 37.1667 31.3991 36.7533 31.4791 36.22C31.5857 35.66 31.6391 35.0333 31.6391 34.34L31.5991 28.66C31.5991 26.9267 31.3457 25.6467 30.8391 24.82C30.3591 23.9667 29.5324 23.54 28.3591 23.54C27.6924 23.54 27.0257 23.6867 26.3591 23.98C25.7191 24.2733 25.1724 24.62 24.7191 25.02C24.7191 25.3933 24.7191 25.78 24.7191 26.18C24.7191 26.5533 24.7191 26.9267 24.7191 27.3V34.06C24.7191 34.4333 24.7057 34.9667 24.6791 35.66C24.6524 36.3267 24.6124 36.9667 24.5591 37.58C24.9857 37.5267 25.4524 37.5 25.9591 37.5C26.4924 37.4733 26.8924 37.46 27.1591 37.46V40.5H16.6791ZM51.3088 41.14C50.1621 41.14 49.0421 40.9933 47.9488 40.7C46.8554 40.4067 46.0021 40.0333 45.3888 39.58L45.4688 40.78H42.4288L42.2688 33.9H44.8688C44.9488 34.7 45.2688 35.4333 45.8288 36.1C46.3888 36.7667 47.1221 37.3 48.0288 37.7C48.9354 38.0733 49.9488 38.26 51.0688 38.26C51.5221 38.26 51.9488 38.1933 52.3488 38.06C52.7754 37.9267 53.1221 37.7133 53.3888 37.42C53.6821 37.1 53.8288 36.7133 53.8288 36.26C53.8288 35.7533 53.6421 35.34 53.2688 35.02C52.9221 34.7 52.4021 34.3933 51.7088 34.1C51.0421 33.8067 50.2021 33.4733 49.1888 33.1C48.3621 32.78 47.5221 32.4467 46.6688 32.1C45.8421 31.7533 45.0688 31.34 44.3488 30.86C43.6554 30.3533 43.0954 29.74 42.6688 29.02C42.2421 28.2733 42.0288 27.3667 42.0288 26.3C42.0288 25.5267 42.1754 24.7667 42.4688 24.02C42.7621 23.2467 43.2154 22.5533 43.8288 21.94C44.4421 21.3 45.2154 20.7933 46.1488 20.42C47.1088 20.0467 48.2421 19.86 49.5488 19.86C50.2688 19.86 51.0821 19.98 51.9888 20.22C52.9221 20.4333 53.7088 20.7667 54.3488 21.22V20.06H57.3888V27.14H54.7888C54.6288 26.2067 54.2954 25.4067 53.7888 24.74C53.3088 24.0733 52.6821 23.5667 51.9088 23.22C51.1354 22.8467 50.2688 22.66 49.3088 22.66C48.6421 22.66 48.0288 22.82 47.4688 23.14C46.9354 23.46 46.6688 24.0067 46.6688 24.78C46.6688 25.3933 46.8821 25.8867 47.3088 26.26C47.7354 26.6067 48.3221 26.9 49.0688 27.14C49.8154 27.38 50.6421 27.66 51.5488 27.98C52.9088 28.4333 54.1088 28.9667 55.1488 29.58C56.2154 30.1933 57.0554 30.94 57.6688 31.82C58.2821 32.6733 58.5888 33.7267 58.5888 34.98C58.5888 36.3667 58.2421 37.5133 57.5488 38.42C56.8554 39.3267 55.9488 40.0067 54.8288 40.46C53.7354 40.9133 52.5621 41.14 51.3088 41.14ZM71.0028 41.14C69.0561 41.14 67.3361 40.7133 65.8428 39.86C64.3495 38.98 63.1895 37.7533 62.3628 36.18C61.5361 34.58 61.1228 32.7 61.1228 30.54C61.1228 28.6733 61.5361 26.9267 62.3628 25.3C63.1895 23.6733 64.3495 22.3667 65.8428 21.38C67.3628 20.3667 69.1228 19.86 71.1228 19.86C72.2428 19.86 73.3361 20.02 74.4028 20.34C75.4695 20.6333 76.4295 21.1533 77.2828 21.9C78.1628 22.6467 78.8561 23.66 79.3628 24.94C79.8961 26.22 80.1495 27.82 80.1228 29.74L67.0028 29.98C67.0028 31.42 67.1761 32.7133 67.5228 33.86C67.8961 35.0067 68.4961 35.9133 69.3228 36.58C70.1495 37.2467 71.2561 37.58 72.6428 37.58C73.1761 37.58 73.7761 37.4867 74.4428 37.3C75.1361 37.1133 75.8295 36.8067 76.5228 36.38C77.2428 35.9267 77.9095 35.3267 78.5228 34.58L80.3228 36.26C79.3628 37.62 78.3361 38.66 77.2428 39.38C76.1495 40.0733 75.0561 40.54 73.9628 40.78C72.8961 41.02 71.9095 41.14 71.0028 41.14ZM67.2428 27.18H74.6028C74.5761 26.06 74.4161 25.18 74.1228 24.54C73.8561 23.8733 73.4828 23.3933 73.0028 23.1C72.5228 22.8067 71.9628 22.66 71.3228 22.66C70.1495 22.66 69.2295 23.0867 68.5628 23.94C67.8961 24.7667 67.4561 25.8467 67.2428 27.18ZM92.4863 41.14C90.6996 41.14 89.0596 40.74 87.5663 39.94C86.0729 39.14 84.8729 37.98 83.9663 36.46C83.0863 34.94 82.6463 33.1 82.6463 30.94C82.6463 29.42 82.8996 27.9933 83.4063 26.66C83.9129 25.3267 84.6196 24.1533 85.5263 23.14C86.4596 22.1267 87.5529 21.3267 88.8063 20.74C90.0863 20.1533 91.4996 19.86 93.0463 19.86C94.7529 19.86 96.1663 20.1267 97.2863 20.66C98.4329 21.1667 99.2863 21.8467 99.8463 22.7C100.433 23.5267 100.726 24.4067 100.726 25.34C100.726 26.1133 100.486 26.8067 100.006 27.42C99.5529 28.0067 98.8996 28.3133 98.0463 28.34C97.0329 28.3667 96.3263 28.0867 95.9263 27.5C95.5263 26.8867 95.3263 26.3 95.3263 25.74C95.3263 25.5 95.3663 25.22 95.4463 24.9C95.5263 24.5533 95.6463 24.2467 95.8063 23.98C95.6196 23.58 95.3396 23.2867 94.9663 23.1C94.5929 22.9133 94.2063 22.7933 93.8063 22.74C93.4329 22.66 93.1263 22.6333 92.8863 22.66C91.6063 22.74 90.5529 23.38 89.7263 24.58C88.8996 25.78 88.4863 27.5133 88.4863 29.78C88.4863 31.1133 88.6463 32.3667 88.9663 33.54C89.3129 34.6867 89.8729 35.6333 90.6463 36.38C91.4196 37.1267 92.4596 37.5267 93.7663 37.58C94.8863 37.6067 95.9796 37.34 97.0463 36.78C98.1129 36.22 99.0196 35.46 99.7663 34.5L101.606 36.3C100.646 37.6333 99.6463 38.6467 98.6063 39.34C97.5663 40.0333 96.5263 40.5 95.4863 40.74C94.4729 41.0067 93.4729 41.14 92.4863 41.14ZM111.669 41.14C110.869 41.14 110.096 41.0467 109.349 40.86C108.629 40.6733 107.963 40.3267 107.349 39.82C106.763 39.2867 106.296 38.5133 105.949 37.5C105.603 36.4867 105.429 35.14 105.429 33.46L105.509 23.82H102.789V20.5C103.616 20.4733 104.416 20.1933 105.189 19.66C105.963 19.1267 106.616 18.4333 107.149 17.58C107.709 16.7267 108.083 15.8333 108.269 14.9H111.229L111.189 20.5H116.269V23.58L111.189 23.7L111.149 33.54C111.149 34.1533 111.203 34.7667 111.309 35.38C111.443 35.9667 111.683 36.46 112.029 36.86C112.376 37.2333 112.883 37.42 113.549 37.42C113.923 37.42 114.429 37.2867 115.069 37.02C115.736 36.7533 116.443 36.0867 117.189 35.02L119.109 36.82C118.389 37.8867 117.643 38.7133 116.869 39.3C116.096 39.8867 115.349 40.3133 114.629 40.58C113.936 40.8467 113.323 41.0067 112.789 41.06C112.256 41.1133 111.883 41.14 111.669 41.14ZM131.393 40.5C131.339 40.1267 131.299 39.82 131.273 39.58C131.273 39.3133 131.259 39.0067 131.233 38.66C130.326 39.5667 129.366 40.2067 128.353 40.58C127.339 40.9533 126.313 41.14 125.273 41.14C123.566 41.14 122.233 40.6333 121.273 39.62C120.313 38.6067 119.833 37.34 119.833 35.82C119.833 34.54 120.153 33.4467 120.793 32.54C121.459 31.6333 122.326 30.9 123.393 30.34C124.486 29.7533 125.686 29.3133 126.993 29.02C128.326 28.7 129.659 28.5133 130.993 28.46V26.38C130.993 25.6867 130.899 25.06 130.713 24.5C130.553 23.94 130.259 23.5 129.833 23.18C129.433 22.86 128.859 22.7133 128.113 22.74C127.606 22.7667 127.113 22.8733 126.633 23.06C126.153 23.2467 125.739 23.5133 125.393 23.86C125.606 24.1 125.739 24.3667 125.793 24.66C125.846 24.9267 125.873 25.1667 125.873 25.38C125.873 25.9133 125.659 26.4733 125.233 27.06C124.806 27.62 124.126 27.8867 123.193 27.86C122.393 27.8333 121.779 27.5533 121.353 27.02C120.926 26.4867 120.713 25.86 120.713 25.14C120.713 24.0733 121.086 23.1533 121.833 22.38C122.606 21.58 123.633 20.9667 124.913 20.54C126.193 20.0867 127.606 19.86 129.153 19.86C131.499 19.86 133.313 20.4733 134.593 21.7C135.899 22.9 136.553 24.8333 136.553 27.5C136.553 28.4067 136.553 29.18 136.553 29.82C136.553 30.46 136.539 31.1 136.513 31.74C136.513 32.38 136.513 33.1533 136.513 34.06C136.513 34.4333 136.499 34.9667 136.473 35.66C136.446 36.3267 136.406 36.9667 136.353 37.58C136.806 37.5267 137.286 37.5 137.793 37.5C138.299 37.4733 138.686 37.46 138.953 37.46V40.5H131.393ZM130.953 31.3C130.206 31.38 129.499 31.5133 128.833 31.7C128.166 31.8867 127.579 32.14 127.073 32.46C126.593 32.78 126.206 33.1667 125.913 33.62C125.646 34.0733 125.513 34.58 125.513 35.14C125.539 35.8867 125.779 36.42 126.233 36.74C126.686 37.06 127.206 37.22 127.793 37.22C128.406 37.22 128.979 37.0867 129.513 36.82C130.046 36.5533 130.526 36.2067 130.953 35.78C130.953 35.5133 130.953 35.26 130.953 35.02C130.953 34.7533 130.953 34.4867 130.953 34.22C130.953 33.74 130.953 33.26 130.953 32.78C130.953 32.2733 130.953 31.78 130.953 31.3ZM144.289 41.14C143.436 41.14 142.729 40.8333 142.169 40.22C141.636 39.6067 141.369 38.8733 141.369 38.02C141.369 37.1667 141.663 36.4333 142.249 35.82C142.836 35.2067 143.516 34.9 144.289 34.9C145.116 34.9 145.796 35.2067 146.329 35.82C146.889 36.4333 147.169 37.1667 147.169 38.02C147.169 38.8733 146.903 39.6067 146.369 40.22C145.863 40.8333 145.169 41.14 144.289 41.14ZM149.873 50.7V48.1C150.619 48.1 151.153 47.9533 151.473 47.66C151.819 47.3667 152.033 46.94 152.113 46.38C152.219 45.8467 152.273 45.2333 152.273 44.54V27.62C152.273 27.14 152.286 26.6067 152.313 26.02C152.339 25.4067 152.379 24.8067 152.433 24.22C152.006 24.2467 151.499 24.2733 150.913 24.3C150.326 24.3 149.886 24.3133 149.593 24.34V21.3C150.846 21.3 151.886 21.2333 152.713 21.1C153.566 20.9667 154.233 20.8067 154.713 20.62C155.219 20.4333 155.566 20.26 155.753 20.1H157.713C157.766 20.3667 157.806 20.7 157.833 21.1C157.859 21.4733 157.886 21.78 157.913 22.02C158.846 21.22 159.766 20.66 160.673 20.34C161.606 20.02 162.486 19.86 163.313 19.86C164.913 19.86 166.313 20.2733 167.513 21.1C168.739 21.9267 169.686 23.1 170.353 24.62C171.046 26.14 171.393 27.9267 171.393 29.98C171.393 32.1133 170.979 34.0333 170.153 35.74C169.326 37.42 168.166 38.74 166.673 39.7C165.206 40.66 163.473 41.14 161.473 41.14C160.753 41.14 160.099 41.06 159.513 40.9C158.953 40.7667 158.419 40.6067 157.913 40.42V44.26C157.913 44.6333 157.899 45.1533 157.873 45.82C157.873 46.5133 157.846 47.1667 157.793 47.78C158.219 47.7267 158.686 47.6867 159.193 47.66C159.699 47.66 160.086 47.66 160.353 47.66V50.7H149.873ZM160.833 38.14C162.059 38.1133 163.006 37.7533 163.673 37.06C164.366 36.34 164.846 35.4067 165.113 34.26C165.379 33.1133 165.513 31.8867 165.513 30.58C165.513 29.3533 165.366 28.1933 165.073 27.1C164.779 26.0067 164.313 25.1267 163.673 24.46C163.033 23.7667 162.193 23.4333 161.153 23.46C160.486 23.4867 159.873 23.66 159.313 23.98C158.753 24.2733 158.286 24.6867 157.913 25.22C157.913 26.0467 157.913 26.8733 157.913 27.7C157.913 28.5 157.913 29.3 157.913 30.1C157.913 30.9 157.913 31.7133 157.913 32.54C157.913 33.34 157.913 34.1533 157.913 34.98C157.913 35.78 157.913 36.5933 157.913 37.42C158.206 37.6067 158.619 37.78 159.153 37.94C159.686 38.1 160.246 38.1667 160.833 38.14ZM174.296 37.9C175.043 37.9 175.576 37.7533 175.896 37.46C176.216 37.1667 176.416 36.7533 176.496 36.22C176.603 35.66 176.656 35.0333 176.656 34.34V27.62C176.656 27.14 176.67 26.6067 176.696 26.02C176.723 25.4067 176.763 24.8067 176.816 24.22C176.39 24.2467 175.883 24.2733 175.296 24.3C174.736 24.3 174.31 24.3133 174.016 24.34V21.3H175.616C176.656 21.3 177.603 21.1667 178.456 20.9C179.336 20.6333 179.91 20.3667 180.176 20.1H182.136C182.19 20.3667 182.23 20.8733 182.256 21.62C182.283 22.34 182.296 22.98 182.296 23.54C183.016 22.66 183.696 21.9533 184.336 21.42C184.976 20.8867 185.603 20.5 186.216 20.26C186.856 19.9933 187.496 19.86 188.136 19.86C189.07 19.86 189.883 20.1267 190.576 20.66C191.27 21.1667 191.616 22.0067 191.616 23.18C191.616 23.58 191.523 24.0067 191.336 24.46C191.15 24.8867 190.856 25.2467 190.456 25.54C190.056 25.8333 189.51 25.98 188.816 25.98C188.283 25.98 187.736 25.82 187.176 25.5C186.616 25.18 186.296 24.5667 186.216 23.66C185.683 23.66 185.15 23.8867 184.616 24.34C184.083 24.7667 183.603 25.2867 183.176 25.9C182.776 26.4867 182.496 27.0333 182.336 27.54V34.06C182.336 34.4333 182.323 34.9667 182.296 35.66C182.27 36.3267 182.23 36.9667 182.176 37.58C182.603 37.5267 183.07 37.5 183.576 37.5C184.11 37.4733 184.51 37.46 184.776 37.46V40.5H174.296V37.9ZM203.003 41.14C201.083 41.14 199.349 40.7267 197.803 39.9C196.256 39.0733 195.029 37.9 194.123 36.38C193.243 34.8333 192.803 33.02 192.803 30.94C192.803 28.7267 193.256 26.7933 194.163 25.14C195.096 23.46 196.323 22.1667 197.843 21.26C199.389 20.3267 201.069 19.86 202.883 19.86C204.803 19.86 206.523 20.2733 208.043 21.1C209.563 21.9267 210.763 23.1133 211.643 24.66C212.523 26.18 212.963 28.0067 212.963 30.14C212.963 32.38 212.536 34.3267 211.683 35.98C210.829 37.6333 209.656 38.9133 208.163 39.82C206.669 40.7 204.949 41.14 203.003 41.14ZM203.163 38.3C204.229 38.2733 205.029 37.9 205.563 37.18C206.123 36.46 206.509 35.5533 206.723 34.46C206.936 33.3667 207.043 32.26 207.043 31.14C207.043 30.1533 206.963 29.1533 206.803 28.14C206.669 27.1267 206.443 26.2067 206.123 25.38C205.803 24.5533 205.363 23.8867 204.803 23.38C204.269 22.8733 203.603 22.6333 202.803 22.66C201.763 22.6867 200.936 23.06 200.323 23.78C199.736 24.5 199.309 25.4067 199.043 26.5C198.803 27.5667 198.683 28.6867 198.683 29.86C198.683 31.22 198.829 32.5533 199.123 33.86C199.416 35.1667 199.883 36.2467 200.523 37.1C201.189 37.9267 202.069 38.3267 203.163 38.3Z" fill="#FF784D"/>
<path d="M0.825 72.5V72.005C1.205 71.985 1.465 71.9 1.605 71.75C1.745 71.59 1.82 71.375 1.83 71.105C1.85 70.825 1.86 70.51 1.86 70.16V63.68C1.86 63.48 1.865 63.29 1.875 63.11C1.885 62.92 1.895 62.75 1.905 62.6C1.725 62.61 1.545 62.62 1.365 62.63C1.185 62.64 1.005 62.65 0.825 62.66V62H4.2V62.495C3.83 62.505 3.57 62.59 3.42 62.75C3.28 62.91 3.2 63.125 3.18 63.395C3.17 63.665 3.165 63.98 3.165 64.34V66.8H4.29L6.165 63.845C6.295 63.645 6.455 63.425 6.645 63.185C6.835 62.945 7.03 62.745 7.23 62.585C7.08 62.595 6.925 62.6 6.765 62.6C6.615 62.6 6.465 62.605 6.315 62.615V62H9.54V62.495C9.12 62.525 8.745 62.595 8.415 62.705C8.085 62.815 7.77 63.01 7.47 63.29C7.17 63.56 6.85 63.97 6.51 64.52L5.04 66.86C5.33 67.03 5.565 67.23 5.745 67.46C5.925 67.68 6.105 67.905 6.285 68.135L7.965 70.37C8.345 70.87 8.655 71.24 8.895 71.48C9.145 71.71 9.365 71.855 9.555 71.915C9.755 71.975 9.96 72.005 10.17 72.005V72.5H8.34C8.24 72.5 8.105 72.43 7.935 72.29C7.775 72.15 7.6 71.97 7.41 71.75C7.22 71.52 7.025 71.28 6.825 71.03L5.025 68.6C4.835 68.35 4.645 68.115 4.455 67.895C4.265 67.665 4.08 67.495 3.9 67.385L3.165 67.4V70.715C3.165 70.985 3.16 71.22 3.15 71.42C3.15 71.61 3.14 71.77 3.12 71.9C3.3 71.89 3.48 71.88 3.66 71.87C3.84 71.86 4.02 71.85 4.2 71.84V72.5H0.825ZM10.1493 72.5V72.005C10.4493 72.005 10.6793 71.925 10.8393 71.765C10.9993 71.605 11.1293 71.385 11.2293 71.105C11.3393 70.825 11.4643 70.5 11.6043 70.13L14.6943 61.715H15.0543L18.3993 70.25C18.4793 70.46 18.5693 70.73 18.6693 71.06C18.7693 71.39 18.8093 71.67 18.7893 71.9C18.9593 71.89 19.1293 71.88 19.2993 71.87C19.4693 71.86 19.6393 71.85 19.8093 71.84V72.5H16.3743V72.005C16.7543 71.995 17.0043 71.91 17.1243 71.75C17.2443 71.59 17.2893 71.4 17.2593 71.18C17.2293 70.96 17.1793 70.76 17.1093 70.58L16.5843 69.17L12.6843 69.26L12.1593 70.865C12.0893 71.105 12.0243 71.295 11.9643 71.435C11.9143 71.575 11.8543 71.73 11.7843 71.9C11.9843 71.89 12.1793 71.88 12.3693 71.87C12.5693 71.86 12.7643 71.85 12.9543 71.84V72.5H10.1493ZM12.9093 68.615H16.3743L15.3093 65.75C15.1993 65.44 15.0843 65.135 14.9643 64.835C14.8543 64.525 14.7443 64.215 14.6343 63.905H14.6043C14.5043 64.185 14.3993 64.465 14.2893 64.745C14.1893 65.025 14.0843 65.31 13.9743 65.6L12.9093 68.615ZM27.9477 65.165C27.9377 64.575 27.8777 64.085 27.7677 63.695C27.6577 63.305 27.4627 63.015 27.1827 62.825C26.9127 62.625 26.5177 62.53 25.9977 62.54H24.7227L24.7077 70.715C24.7077 70.985 24.7027 71.22 24.6927 71.42C24.6927 71.61 24.6827 71.77 24.6627 71.9C24.8727 71.89 25.0777 71.88 25.2777 71.87C25.4877 71.86 25.6977 71.85 25.9077 71.84V72.5H22.3827V72.005C22.7627 71.985 23.0177 71.895 23.1477 71.735C23.2877 71.575 23.3627 71.36 23.3727 71.09C23.3927 70.81 23.4027 70.5 23.4027 70.16L23.4177 62.555L21.8727 62.57C21.2427 62.57 20.7977 62.78 20.5377 63.2C20.2777 63.62 20.1477 64.275 20.1477 65.165H19.5927L19.6827 62H28.4277L28.5177 65.165H27.9477ZM28.4012 72.5V72.005C28.7012 72.005 28.9312 71.925 29.0912 71.765C29.2512 71.605 29.3812 71.385 29.4812 71.105C29.5912 70.825 29.7162 70.5 29.8562 70.13L32.9462 61.715H33.3062L36.6512 70.25C36.7312 70.46 36.8212 70.73 36.9212 71.06C37.0212 71.39 37.0612 71.67 37.0412 71.9C37.2112 71.89 37.3812 71.88 37.5512 71.87C37.7212 71.86 37.8912 71.85 38.0612 71.84V72.5H34.6262V72.005C35.0062 71.995 35.2562 71.91 35.3762 71.75C35.4962 71.59 35.5412 71.4 35.5112 71.18C35.4812 70.96 35.4312 70.76 35.3612 70.58L34.8362 69.17L30.9362 69.26L30.4112 70.865C30.3412 71.105 30.2762 71.295 30.2162 71.435C30.1662 71.575 30.1062 71.73 30.0362 71.9C30.2362 71.89 30.4312 71.88 30.6212 71.87C30.8212 71.86 31.0162 71.85 31.2062 71.84V72.5H28.4012ZM31.1612 68.615H34.6262L33.5612 65.75C33.4512 65.44 33.3362 65.135 33.2162 64.835C33.1062 64.525 32.9962 64.215 32.8862 63.905H32.8562C32.7562 64.185 32.6512 64.465 32.5412 64.745C32.4412 65.025 32.3362 65.31 32.2262 65.6L31.1612 68.615ZM39.3659 72.74C39.0059 72.74 38.6859 72.65 38.4059 72.47C38.1259 72.28 37.9859 72.03 37.9859 71.72C37.9859 71.5 38.0509 71.32 38.1809 71.18C38.3209 71.03 38.5009 70.95 38.7209 70.94C38.9709 70.92 39.1559 70.99 39.2759 71.15C39.3959 71.3 39.4559 71.45 39.4559 71.6C39.4559 71.77 39.4059 71.905 39.3059 72.005C39.3859 72.085 39.4709 72.125 39.5609 72.125C39.7309 72.125 39.9259 71.98 40.1459 71.69C40.3759 71.4 40.5959 70.955 40.8059 70.355C41.0159 69.755 41.1909 69 41.3309 68.09C41.4709 67.17 41.5409 66.085 41.5409 64.835V62.6H41.2259L40.1309 62.66V62H47.5559V62.495C47.1859 62.505 46.9259 62.59 46.7759 62.75C46.6359 62.91 46.5559 63.125 46.5359 63.395C46.5259 63.665 46.5209 63.98 46.5209 64.34V70.715C46.5209 70.985 46.5159 71.22 46.5059 71.42C46.5059 71.61 46.4959 71.77 46.4759 71.9C46.6559 71.89 46.8359 71.88 47.0159 71.87C47.1959 71.86 47.3759 71.85 47.5559 71.84V72.5H44.1659V72.005C44.5459 71.985 44.8059 71.9 44.9459 71.75C45.0959 71.59 45.1759 71.375 45.1859 71.105C45.2059 70.825 45.2159 70.51 45.2159 70.16V62.585L43.1009 62.6C42.7409 62.6 42.5159 62.7 42.4259 62.9C42.3359 63.09 42.2809 63.38 42.2609 63.77C42.2609 64.65 42.2309 65.52 42.1709 66.38C42.1109 67.24 42.0159 68.055 41.8859 68.825C41.7559 69.585 41.5809 70.26 41.3609 70.85C41.1409 71.44 40.8659 71.905 40.5359 72.245C40.2059 72.575 39.8159 72.74 39.3659 72.74ZM54.282 72.74C53.332 72.74 52.517 72.58 51.837 72.26C51.157 71.94 50.602 71.515 50.172 70.985C49.752 70.445 49.442 69.85 49.242 69.2C49.042 68.55 48.942 67.9 48.942 67.25C48.942 66.62 49.047 65.985 49.257 65.345C49.467 64.695 49.787 64.1 50.217 63.56C50.657 63.02 51.202 62.585 51.852 62.255C52.512 61.925 53.282 61.76 54.162 61.76C55.082 61.76 55.877 61.925 56.547 62.255C57.217 62.585 57.767 63.025 58.197 63.575C58.637 64.115 58.962 64.705 59.172 65.345C59.392 65.985 59.502 66.62 59.502 67.25C59.502 67.87 59.397 68.505 59.187 69.155C58.977 69.795 58.652 70.39 58.212 70.94C57.782 71.48 57.242 71.915 56.592 72.245C55.942 72.575 55.172 72.74 54.282 72.74ZM54.312 72.125C54.932 72.125 55.472 71.995 55.932 71.735C56.392 71.465 56.772 71.11 57.072 70.67C57.382 70.22 57.612 69.725 57.762 69.185C57.922 68.635 58.002 68.085 58.002 67.535C58.002 66.915 57.917 66.3 57.747 65.69C57.577 65.08 57.327 64.525 56.997 64.025C56.667 63.525 56.257 63.125 55.767 62.825C55.287 62.515 54.737 62.36 54.117 62.36C53.497 62.36 52.952 62.495 52.482 62.765C52.022 63.035 51.637 63.395 51.327 63.845C51.027 64.285 50.797 64.78 50.637 65.33C50.487 65.87 50.412 66.42 50.412 66.98C50.412 67.53 50.487 68.105 50.637 68.705C50.797 69.305 51.037 69.865 51.357 70.385C51.677 70.905 52.082 71.325 52.572 71.645C53.062 71.965 53.642 72.125 54.312 72.125ZM60.8543 72.5V72.005C61.2343 71.985 61.4943 71.9 61.6343 71.75C61.7743 71.59 61.8493 71.375 61.8593 71.105C61.8793 70.825 61.8893 70.51 61.8893 70.16V63.68C61.8893 63.48 61.8943 63.29 61.9043 63.11C61.9143 62.92 61.9243 62.75 61.9343 62.6C61.7543 62.61 61.5743 62.62 61.3943 62.63C61.2143 62.64 61.0343 62.65 60.8543 62.66V62H67.8143L67.8893 64.625H67.3343C67.3343 64.035 67.2443 63.59 67.0643 63.29C66.8843 62.98 66.6443 62.775 66.3443 62.675C66.0443 62.565 65.7043 62.515 65.3243 62.525L64.2293 62.555C63.8593 62.565 63.6043 62.655 63.4643 62.825C63.3243 62.985 63.2443 63.2 63.2243 63.47C63.2043 63.74 63.1943 64.05 63.1943 64.4V70.715C63.1943 70.985 63.1893 71.22 63.1793 71.42C63.1793 71.61 63.1693 71.77 63.1493 71.9C63.3193 71.89 63.4893 71.885 63.6593 71.885C63.8293 71.875 63.9993 71.865 64.1693 71.855C64.3393 71.845 64.5093 71.84 64.6793 71.84V72.5H60.8543ZM73.0125 72.5V72.005C73.3925 71.985 73.6525 71.9 73.7925 71.75C73.9325 71.59 74.0075 71.375 74.0175 71.105C74.0375 70.825 74.0475 70.51 74.0475 70.16V63.68C74.0475 63.48 74.0525 63.29 74.0625 63.11C74.0725 62.92 74.0825 62.75 74.0925 62.6C73.9125 62.61 73.7325 62.62 73.5525 62.63C73.3725 62.64 73.1925 62.65 73.0125 62.66V62H76.3875V62.495C76.0175 62.505 75.7575 62.59 75.6075 62.75C75.4675 62.91 75.3875 63.125 75.3675 63.395C75.3575 63.665 75.3525 63.98 75.3525 64.34V66.83H80.7225V63.68C80.7225 63.48 80.7275 63.29 80.7375 63.11C80.7475 62.92 80.7575 62.75 80.7675 62.6C80.5875 62.61 80.4075 62.62 80.2275 62.63C80.0475 62.64 79.8675 62.65 79.6875 62.66V62H83.0625V62.495C82.6925 62.505 82.4325 62.59 82.2825 62.75C82.1425 62.91 82.0625 63.125 82.0425 63.395C82.0325 63.665 82.0275 63.98 82.0275 64.34V70.715C82.0275 70.985 82.0225 71.22 82.0125 71.42C82.0125 71.61 82.0025 71.77 81.9825 71.9C82.1625 71.89 82.3425 71.88 82.5225 71.87C82.7025 71.86 82.8825 71.85 83.0625 71.84V72.5H79.6875V72.005C80.0675 71.985 80.3275 71.9 80.4675 71.75C80.6075 71.59 80.6825 71.375 80.6925 71.105C80.7125 70.825 80.7225 70.51 80.7225 70.16V67.43L75.3525 67.49V70.715C75.3525 70.985 75.3475 71.22 75.3375 71.42C75.3375 71.61 75.3275 71.77 75.3075 71.9C75.4875 71.89 75.6675 71.88 75.8475 71.87C76.0275 71.86 76.2075 71.85 76.3875 71.84V72.5H73.0125ZM83.8016 72.5V72.005C84.1016 72.005 84.3316 71.925 84.4916 71.765C84.6516 71.605 84.7816 71.385 84.8816 71.105C84.9916 70.825 85.1166 70.5 85.2566 70.13L88.3466 61.715H88.7066L92.0516 70.25C92.1316 70.46 92.2216 70.73 92.3216 71.06C92.4216 71.39 92.4616 71.67 92.4416 71.9C92.6116 71.89 92.7816 71.88 92.9516 71.87C93.1216 71.86 93.2916 71.85 93.4616 71.84V72.5H90.0266V72.005C90.4066 71.995 90.6566 71.91 90.7766 71.75C90.8966 71.59 90.9416 71.4 90.9116 71.18C90.8816 70.96 90.8316 70.76 90.7616 70.58L90.2366 69.17L86.3366 69.26L85.8116 70.865C85.7416 71.105 85.6766 71.295 85.6166 71.435C85.5666 71.575 85.5066 71.73 85.4366 71.9C85.6366 71.89 85.8316 71.88 86.0216 71.87C86.2216 71.86 86.4166 71.85 86.6066 71.84V72.5H83.8016ZM86.5616 68.615H90.0266L88.9616 65.75C88.8516 65.44 88.7366 65.135 88.6166 64.835C88.5066 64.525 88.3966 64.215 88.2866 63.905H88.2566C88.1566 64.185 88.0516 64.465 87.9416 64.745C87.8416 65.025 87.7366 65.31 87.6266 65.6L86.5616 68.615ZM102.328 65.345C102.228 64.405 101.898 63.675 101.338 63.155C100.788 62.635 100.078 62.375 99.208 62.375C98.678 62.375 98.178 62.49 97.708 62.72C97.248 62.94 96.843 63.26 96.493 63.68C96.143 64.1 95.868 64.605 95.668 65.195C95.468 65.785 95.368 66.45 95.368 67.19C95.368 68.13 95.548 68.96 95.908 69.68C96.268 70.4 96.753 70.96 97.363 71.36C97.973 71.76 98.648 71.96 99.388 71.96C100.038 71.96 100.678 71.815 101.308 71.525C101.938 71.225 102.453 70.795 102.853 70.235L103.243 70.55C102.813 71.14 102.348 71.595 101.848 71.915C101.348 72.235 100.848 72.45 100.348 72.56C99.858 72.68 99.408 72.74 98.998 72.74C98.248 72.74 97.558 72.605 96.928 72.335C96.308 72.065 95.768 71.69 95.308 71.21C94.858 70.72 94.508 70.155 94.258 69.515C94.018 68.865 93.898 68.165 93.898 67.415C93.898 66.705 94.003 66.015 94.213 65.345C94.433 64.675 94.758 64.07 95.188 63.53C95.618 62.99 96.158 62.56 96.808 62.24C97.468 61.92 98.233 61.76 99.103 61.76C99.663 61.76 100.193 61.835 100.693 61.985C101.193 62.135 101.673 62.365 102.133 62.675L102.058 61.865H102.868V65.345H102.328ZM109.741 68.615C109.741 68.175 109.681 67.86 109.561 67.67C109.441 67.48 109.251 67.365 108.991 67.325C108.731 67.285 108.386 67.275 107.956 67.295L106.861 67.34V70.775C106.861 71.045 106.856 71.275 106.846 71.465C106.846 71.655 106.836 71.815 106.816 71.945L109.681 71.9C110.121 71.89 110.501 71.82 110.821 71.69C111.141 71.55 111.391 71.31 111.571 70.97C111.751 70.63 111.841 70.165 111.841 69.575H112.351L112.261 72.5H104.521V72.005C104.901 71.985 105.161 71.9 105.301 71.75C105.441 71.59 105.516 71.375 105.526 71.105C105.546 70.825 105.556 70.51 105.556 70.16V63.68C105.556 63.48 105.561 63.29 105.571 63.11C105.581 62.92 105.591 62.75 105.601 62.6C105.421 62.61 105.241 62.62 105.061 62.63C104.881 62.64 104.701 62.65 104.521 62.66V62H111.736L111.811 64.625H111.316C111.316 64.035 111.226 63.59 111.046 63.29C110.866 62.98 110.621 62.775 110.311 62.675C110.011 62.565 109.671 62.515 109.291 62.525L108.001 62.555C107.631 62.565 107.366 62.635 107.206 62.765C107.046 62.895 106.946 63.09 106.906 63.35C106.876 63.6 106.861 63.93 106.861 64.34V66.74L109.681 66.755L109.576 65.465H110.236V68.615H109.741ZM113.852 72.5V72.005C114.232 71.985 114.492 71.9 114.632 71.75C114.772 71.59 114.847 71.375 114.857 71.105C114.877 70.825 114.887 70.51 114.887 70.16V63.68C114.887 63.48 114.892 63.29 114.902 63.11C114.912 62.92 114.922 62.75 114.932 62.6C114.752 62.61 114.572 62.62 114.392 62.63C114.212 62.64 114.032 62.65 113.852 62.66V62H117.227V62.495C116.857 62.505 116.597 62.59 116.447 62.75C116.307 62.91 116.227 63.125 116.207 63.395C116.197 63.665 116.192 63.98 116.192 64.34V66.8H117.317L119.192 63.845C119.322 63.645 119.482 63.425 119.672 63.185C119.862 62.945 120.057 62.745 120.257 62.585C120.107 62.595 119.952 62.6 119.792 62.6C119.642 62.6 119.492 62.605 119.342 62.615V62H122.567V62.495C122.147 62.525 121.772 62.595 121.442 62.705C121.112 62.815 120.797 63.01 120.497 63.29C120.197 63.56 119.877 63.97 119.537 64.52L118.067 66.86C118.357 67.03 118.592 67.23 118.772 67.46C118.952 67.68 119.132 67.905 119.312 68.135L120.992 70.37C121.372 70.87 121.682 71.24 121.922 71.48C122.172 71.71 122.392 71.855 122.582 71.915C122.782 71.975 122.987 72.005 123.197 72.005V72.5H121.367C121.267 72.5 121.132 72.43 120.962 72.29C120.802 72.15 120.627 71.97 120.437 71.75C120.247 71.52 120.052 71.28 119.852 71.03L118.052 68.6C117.862 68.35 117.672 68.115 117.482 67.895C117.292 67.665 117.107 67.495 116.927 67.385L116.192 67.4V70.715C116.192 70.985 116.187 71.22 116.177 71.42C116.177 71.61 116.167 71.77 116.147 71.9C116.327 71.89 116.507 71.88 116.687 71.87C116.867 71.86 117.047 71.85 117.227 71.84V72.5H113.852ZM128.93 72.74C127.98 72.74 127.165 72.58 126.485 72.26C125.805 71.94 125.25 71.515 124.82 70.985C124.4 70.445 124.09 69.85 123.89 69.2C123.69 68.55 123.59 67.9 123.59 67.25C123.59 66.62 123.695 65.985 123.905 65.345C124.115 64.695 124.435 64.1 124.865 63.56C125.305 63.02 125.85 62.585 126.5 62.255C127.16 61.925 127.93 61.76 128.81 61.76C129.73 61.76 130.525 61.925 131.195 62.255C131.865 62.585 132.415 63.025 132.845 63.575C133.285 64.115 133.61 64.705 133.82 65.345C134.04 65.985 134.15 66.62 134.15 67.25C134.15 67.87 134.045 68.505 133.835 69.155C133.625 69.795 133.3 70.39 132.86 70.94C132.43 71.48 131.89 71.915 131.24 72.245C130.59 72.575 129.82 72.74 128.93 72.74ZM128.96 72.125C129.58 72.125 130.12 71.995 130.58 71.735C131.04 71.465 131.42 71.11 131.72 70.67C132.03 70.22 132.26 69.725 132.41 69.185C132.57 68.635 132.65 68.085 132.65 67.535C132.65 66.915 132.565 66.3 132.395 65.69C132.225 65.08 131.975 64.525 131.645 64.025C131.315 63.525 130.905 63.125 130.415 62.825C129.935 62.515 129.385 62.36 128.765 62.36C128.145 62.36 127.6 62.495 127.13 62.765C126.67 63.035 126.285 63.395 125.975 63.845C125.675 64.285 125.445 64.78 125.285 65.33C125.135 65.87 125.06 66.42 125.06 66.98C125.06 67.53 125.135 68.105 125.285 68.705C125.445 69.305 125.685 69.865 126.005 70.385C126.325 70.905 126.73 71.325 127.22 71.645C127.71 71.965 128.29 72.125 128.96 72.125ZM141.29 72.65C140.85 71.65 140.405 70.655 139.955 69.665C139.505 68.665 139.065 67.655 138.635 66.635C138.495 66.315 138.355 65.995 138.215 65.675C138.085 65.345 137.955 65.015 137.825 64.685C137.705 64.355 137.58 64.025 137.45 63.695C137.45 63.805 137.445 63.915 137.435 64.025C137.435 64.135 137.435 64.245 137.435 64.355C137.425 64.715 137.41 65.15 137.39 65.66C137.38 66.16 137.365 66.7 137.345 67.28C137.325 67.85 137.31 68.425 137.3 69.005C137.29 69.575 137.28 70.115 137.27 70.625C137.26 70.845 137.25 71.065 137.24 71.285C137.24 71.505 137.23 71.71 137.21 71.9C137.4 71.89 137.585 71.88 137.765 71.87C137.955 71.86 138.145 71.85 138.335 71.84V72.5H135.47V72.005C135.78 71.995 136.005 71.93 136.145 71.81C136.295 71.68 136.39 71.51 136.43 71.3C136.47 71.09 136.495 70.865 136.505 70.625L136.79 63.785C136.8 63.585 136.805 63.385 136.805 63.185C136.815 62.985 136.825 62.79 136.835 62.6C136.655 62.61 136.475 62.62 136.295 62.63C136.115 62.63 135.935 62.635 135.755 62.645V62H138.05L140.63 67.955C140.76 68.255 140.885 68.555 141.005 68.855C141.135 69.155 141.265 69.455 141.395 69.755C141.535 70.055 141.67 70.36 141.8 70.67H141.83C141.94 70.4 142.07 70.08 142.22 69.71C142.37 69.33 142.495 69.005 142.595 68.735C143.035 67.635 143.49 66.535 143.96 65.435C144.44 64.325 144.91 63.18 145.37 62H147.59V62.495C147.34 62.485 147.135 62.535 146.975 62.645C146.815 62.745 146.7 62.915 146.63 63.155C146.56 63.395 146.535 63.72 146.555 64.13L146.945 70.955C146.965 71.125 146.975 71.29 146.975 71.45C146.975 71.61 146.975 71.755 146.975 71.885C147.155 71.875 147.335 71.87 147.515 71.87C147.705 71.86 147.89 71.85 148.07 71.84V72.5H144.71V72.005C145.02 71.995 145.25 71.92 145.4 71.78C145.55 71.64 145.64 71.44 145.67 71.18C145.71 70.92 145.72 70.6 145.7 70.22L145.4 65.27C145.39 65.11 145.38 64.95 145.37 64.79C145.36 64.63 145.35 64.47 145.34 64.31C145.33 64.15 145.32 63.99 145.31 63.83C145.28 63.9 145.245 63.975 145.205 64.055C145.175 64.135 145.145 64.22 145.115 64.31L141.74 72.65H141.29ZM149.404 72.5V72.005C149.774 71.995 150.029 71.915 150.169 71.765C150.309 71.605 150.389 71.39 150.409 71.12C150.429 70.84 150.439 70.52 150.439 70.16V63.68C150.439 63.48 150.444 63.29 150.454 63.11C150.464 62.92 150.474 62.75 150.484 62.6C150.304 62.61 150.124 62.62 149.944 62.63C149.764 62.64 149.584 62.65 149.404 62.66V62H152.779V62.495C152.409 62.505 152.149 62.59 151.999 62.75C151.859 62.91 151.779 63.125 151.759 63.395C151.749 63.665 151.744 63.98 151.744 64.34V66.395L152.959 66.35C153.729 66.33 154.379 66.39 154.909 66.53C155.439 66.66 155.864 66.86 156.184 67.13C156.504 67.4 156.734 67.72 156.874 68.09C157.024 68.46 157.099 68.865 157.099 69.305C157.099 70.005 156.949 70.595 156.649 71.075C156.349 71.545 155.949 71.9 155.449 72.14C154.949 72.38 154.394 72.5 153.784 72.5H149.404ZM151.699 71.9C151.859 71.91 152.049 71.92 152.269 71.93C152.499 71.93 152.709 71.93 152.899 71.93C153.099 71.93 153.229 71.93 153.289 71.93C153.729 71.93 154.129 71.84 154.489 71.66C154.849 71.48 155.134 71.2 155.344 70.82C155.554 70.44 155.659 69.955 155.659 69.365C155.659 68.725 155.539 68.23 155.299 67.88C155.069 67.53 154.774 67.285 154.414 67.145C154.054 66.995 153.679 66.92 153.289 66.92C152.989 66.92 152.714 66.925 152.464 66.935C152.224 66.935 151.984 66.945 151.744 66.965C151.744 67.935 151.744 68.725 151.744 69.335C151.744 69.935 151.739 70.405 151.729 70.745C151.729 71.075 151.724 71.325 151.714 71.495C151.714 71.665 151.709 71.8 151.699 71.9ZM157.864 72.5V72.005C158.244 71.985 158.504 71.9 158.644 71.75C158.784 71.59 158.859 71.375 158.869 71.105C158.889 70.825 158.899 70.51 158.899 70.16V63.68C158.899 63.48 158.899 63.29 158.899 63.11C158.909 62.92 158.924 62.75 158.944 62.6C158.764 62.61 158.584 62.62 158.404 62.63C158.224 62.64 158.044 62.65 157.864 62.66V62H161.239V62.495C160.869 62.505 160.609 62.59 160.459 62.75C160.319 62.91 160.239 63.125 160.219 63.395C160.209 63.665 160.204 63.98 160.204 64.34V70.715C160.204 70.985 160.199 71.22 160.189 71.42C160.179 71.61 160.164 71.77 160.144 71.9C160.324 71.89 160.504 71.88 160.684 71.87C160.874 71.86 161.059 71.85 161.239 71.84V72.5H157.864ZM162.25 72.5V72.005C162.73 71.905 163.105 71.705 163.375 71.405C163.655 71.095 163.965 70.695 164.305 70.205L166.255 67.415C165.565 66.445 165.025 65.69 164.635 65.15C164.245 64.6 163.94 64.17 163.72 63.86C163.53 63.57 163.385 63.34 163.285 63.17C163.195 63 163.11 62.82 163.03 62.63C162.9 62.64 162.765 62.645 162.625 62.645C162.485 62.645 162.345 62.65 162.205 62.66V62H166.09V62.495L165.43 62.525C165.07 62.535 164.85 62.605 164.77 62.735C164.7 62.855 164.705 63.005 164.785 63.185C164.875 63.365 164.975 63.55 165.085 63.74C165.265 64.04 165.52 64.43 165.85 64.91C166.19 65.38 166.555 65.885 166.945 66.425L168.385 64.34C168.645 63.98 168.89 63.635 169.12 63.305C169.36 62.975 169.56 62.74 169.72 62.6C169.51 62.61 169.3 62.62 169.09 62.63C168.88 62.64 168.67 62.65 168.46 62.66V62H171.415V62.495C171.095 62.535 170.795 62.665 170.515 62.885C170.235 63.105 169.975 63.37 169.735 63.68C169.495 63.98 169.27 64.28 169.06 64.58L167.365 66.98C167.725 67.46 168.075 67.93 168.415 68.39C168.765 68.84 169.08 69.25 169.36 69.62C169.64 69.98 169.855 70.265 170.005 70.475C170.175 70.705 170.345 70.94 170.515 71.18C170.695 71.41 170.87 71.64 171.04 71.87C171.18 71.86 171.325 71.855 171.475 71.855C171.625 71.855 171.77 71.85 171.91 71.84V72.5H168.235V72.005C168.625 72.015 168.88 71.965 169 71.855C169.12 71.735 169.155 71.59 169.105 71.42C169.065 71.24 168.985 71.07 168.865 70.91C168.635 70.6 168.325 70.2 167.935 69.71C167.545 69.21 167.12 68.64 166.66 68C166.41 68.36 166.16 68.725 165.91 69.095C165.67 69.455 165.425 69.825 165.175 70.205C164.995 70.475 164.805 70.755 164.605 71.045C164.415 71.335 164.195 71.625 163.945 71.915C164.155 71.895 164.36 71.88 164.56 71.87C164.77 71.86 164.98 71.85 165.19 71.84V72.5H162.25ZM182.232 72.65C181.792 71.65 181.347 70.655 180.897 69.665C180.447 68.665 180.007 67.655 179.577 66.635C179.437 66.315 179.297 65.995 179.157 65.675C179.027 65.345 178.897 65.015 178.767 64.685C178.647 64.355 178.522 64.025 178.392 63.695C178.392 63.805 178.387 63.915 178.377 64.025C178.377 64.135 178.377 64.245 178.377 64.355C178.367 64.715 178.352 65.15 178.332 65.66C178.322 66.16 178.307 66.7 178.287 67.28C178.267 67.85 178.252 68.425 178.242 69.005C178.232 69.575 178.222 70.115 178.212 70.625C178.202 70.845 178.192 71.065 178.182 71.285C178.182 71.505 178.172 71.71 178.152 71.9C178.342 71.89 178.527 71.88 178.707 71.87C178.897 71.86 179.087 71.85 179.277 71.84V72.5H176.412V72.005C176.722 71.995 176.947 71.93 177.087 71.81C177.237 71.68 177.332 71.51 177.372 71.3C177.412 71.09 177.437 70.865 177.447 70.625L177.732 63.785C177.742 63.585 177.747 63.385 177.747 63.185C177.757 62.985 177.767 62.79 177.777 62.6C177.597 62.61 177.417 62.62 177.237 62.63C177.057 62.63 176.877 62.635 176.697 62.645V62H178.992L181.572 67.955C181.702 68.255 181.827 68.555 181.947 68.855C182.077 69.155 182.207 69.455 182.337 69.755C182.477 70.055 182.612 70.36 182.742 70.67H182.772C182.882 70.4 183.012 70.08 183.162 69.71C183.312 69.33 183.437 69.005 183.537 68.735C183.977 67.635 184.432 66.535 184.902 65.435C185.382 64.325 185.852 63.18 186.312 62H188.532V62.495C188.282 62.485 188.077 62.535 187.917 62.645C187.757 62.745 187.642 62.915 187.572 63.155C187.502 63.395 187.477 63.72 187.497 64.13L187.887 70.955C187.907 71.125 187.917 71.29 187.917 71.45C187.917 71.61 187.917 71.755 187.917 71.885C188.097 71.875 188.277 71.87 188.457 71.87C188.647 71.86 188.832 71.85 189.012 71.84V72.5H185.652V72.005C185.962 71.995 186.192 71.92 186.342 71.78C186.492 71.64 186.582 71.44 186.612 71.18C186.652 70.92 186.662 70.6 186.642 70.22L186.342 65.27C186.332 65.11 186.322 64.95 186.312 64.79C186.302 64.63 186.292 64.47 186.282 64.31C186.272 64.15 186.262 63.99 186.252 63.83C186.222 63.9 186.187 63.975 186.147 64.055C186.117 64.135 186.087 64.22 186.057 64.31L182.682 72.65H182.232ZM193.721 62.495C193.351 62.505 193.091 62.59 192.941 62.75C192.801 62.91 192.721 63.125 192.701 63.395C192.691 63.665 192.686 63.98 192.686 64.34V70.715C192.686 70.985 192.681 71.22 192.671 71.42C192.671 71.61 192.661 71.77 192.641 71.9C192.821 71.89 193.001 71.88 193.181 71.87C193.361 71.86 193.541 71.85 193.721 71.84V72.5H190.346V72.005C190.726 71.985 190.986 71.9 191.126 71.75C191.266 71.59 191.341 71.375 191.351 71.105C191.371 70.825 191.381 70.51 191.381 70.16V63.68C191.381 63.48 191.386 63.29 191.396 63.11C191.406 62.92 191.416 62.75 191.426 62.6C191.246 62.61 191.066 62.62 190.886 62.63C190.706 62.64 190.526 62.65 190.346 62.66V62H193.721V62.495ZM200.546 62.495C200.176 62.505 199.916 62.59 199.766 62.75C199.626 62.91 199.546 63.125 199.526 63.395C199.516 63.665 199.511 63.98 199.511 64.34V70.715C199.511 70.985 199.506 71.22 199.496 71.42C199.496 71.61 199.486 71.77 199.466 71.9C199.646 71.89 199.826 71.88 200.006 71.87C200.186 71.86 200.366 71.85 200.546 71.84V72.5H197.171V72.005C197.551 71.985 197.811 71.9 197.951 71.75C198.091 71.59 198.166 71.375 198.176 71.105C198.196 70.825 198.206 70.51 198.206 70.16V63.68C198.206 63.48 198.211 63.29 198.221 63.11C198.231 62.92 198.241 62.75 198.251 62.6C198.071 62.61 197.891 62.62 197.711 62.63C197.531 62.64 197.351 62.65 197.171 62.66V62H200.546V62.495ZM198.581 62.735L199.001 63.14L192.131 71.72L191.666 71.285L198.581 62.735ZM202.197 72.005C202.577 71.985 202.837 71.9 202.977 71.75C203.117 71.59 203.192 71.375 203.202 71.105C203.222 70.825 203.232 70.51 203.232 70.16V63.68C203.232 63.48 203.237 63.29 203.247 63.11C203.257 62.92 203.267 62.75 203.277 62.6C203.097 62.61 202.917 62.62 202.737 62.63C202.557 62.64 202.377 62.65 202.197 62.66V62C202.727 61.99 203.272 61.985 203.832 61.985C204.392 61.975 204.962 61.97 205.542 61.97C206.512 61.97 207.327 62.08 207.987 62.3C208.647 62.52 209.152 62.845 209.502 63.275C209.852 63.705 210.042 64.24 210.072 64.88C210.092 65.27 210.032 65.68 209.892 66.11C209.762 66.53 209.512 66.93 209.142 67.31C208.782 67.68 208.272 67.98 207.612 68.21C206.952 68.44 206.107 68.555 205.077 68.555C205.037 68.555 204.962 68.555 204.852 68.555C204.742 68.555 204.637 68.55 204.537 68.54V70.715C204.537 70.985 204.532 71.22 204.522 71.42C204.522 71.61 204.512 71.77 204.492 71.9C204.652 71.89 204.807 71.88 204.957 71.87C205.107 71.86 205.257 71.855 205.407 71.855C205.567 71.845 205.722 71.835 205.872 71.825V72.5H202.197V72.005ZM204.537 67.925C204.727 67.945 204.887 67.96 205.017 67.97C205.157 67.97 205.322 67.97 205.512 67.97C206.082 67.97 206.602 67.86 207.072 67.64C207.542 67.41 207.917 67.085 208.197 66.665C208.477 66.245 208.617 65.745 208.617 65.165C208.617 64.695 208.542 64.295 208.392 63.965C208.242 63.625 208.027 63.355 207.747 63.155C207.477 62.945 207.152 62.795 206.772 62.705C206.392 62.605 205.972 62.555 205.512 62.555C205.162 62.555 204.917 62.63 204.777 62.78C204.647 62.93 204.572 63.14 204.552 63.41C204.542 63.67 204.537 63.98 204.537 64.34V67.925ZM210.379 72.5V72.005C210.679 72.005 210.909 71.925 211.069 71.765C211.229 71.605 211.359 71.385 211.459 71.105C211.569 70.825 211.694 70.5 211.834 70.13L214.924 61.715H215.284L218.629 70.25C218.709 70.46 218.799 70.73 218.899 71.06C218.999 71.39 219.039 71.67 219.019 71.9C219.189 71.89 219.359 71.88 219.529 71.87C219.699 71.86 219.869 71.85 220.039 71.84V72.5H216.604V72.005C216.984 71.995 217.234 71.91 217.354 71.75C217.474 71.59 217.519 71.4 217.489 71.18C217.459 70.96 217.409 70.76 217.339 70.58L216.814 69.17L212.914 69.26L212.389 70.865C212.319 71.105 212.254 71.295 212.194 71.435C212.144 71.575 212.084 71.73 212.014 71.9C212.214 71.89 212.409 71.88 212.599 71.87C212.799 71.86 212.994 71.85 213.184 71.84V72.5H210.379ZM213.139 68.615H216.604L215.539 65.75C215.429 65.44 215.314 65.135 215.194 64.835C215.084 64.525 214.974 64.215 214.864 63.905H214.834C214.734 64.185 214.629 64.465 214.519 64.745C214.419 65.025 214.314 65.31 214.204 65.6L213.139 68.615Z" fill="#F7F6F4"/>
</svg>